<svg xmlns="http://www.w3.org/2000/svg" width="600" height="481.312" viewBox="0 0 600 481.312"><path d="M92.459 0L0 388.197l388.196 93.115 12.46-53.115h-18.361l-6.557 32.13-354.755-84.59 84.59-354.753 354.755 84.59-3.28 13.77h17.706l6.557-26.23L92.46 0zm81.567 167.847l7.532-29.207-29.208-7.532-7.532 29.208 29.208 7.531z" fill="#e83766"/><path d="M144.918 323.279h29.508V187.54h-29.508V323.28zm134.426-45.246c0-20.984-7.869-36.722-32.131-58.36-19.016-17.05-24.918-26.886-24.918-40.657 0-13.114 5.246-18.36 14.426-18.36s14.426 5.246 14.426 18.36v7.87h27.542v-5.902c0-30.164-14.427-47.213-43.28-47.213-28.852 0-43.934 17.049-43.278 46.557 0 20.984 7.869 36.721 32.131 58.36 19.017 17.05 24.918 26.886 24.918 40.657 0 13.77-5.901 18.36-15.082 18.36-9.18 0-15.082-5.246-15.082-18.36V266.23h-27.54v11.803c0 30.164 15.081 47.213 43.934 47.213 28.852 0 43.934-17.05 43.934-47.213zm101.64 0v-24.918h-27.542V280c0 13.77-5.901 18.36-15.081 18.36-9.181 0-15.082-5.245-15.082-18.36V179.016c0-13.114 5.901-18.36 15.082-18.36 9.18 0 15.081 5.246 15.081 18.36v20.328h27.541v-18.36c0-30.164-15.081-47.213-43.934-47.213-28.852 0-43.935 17.049-43.935 47.213v97.049c0 30.164 15.083 47.213 43.935 47.213 28.853 0 43.934-17.05 43.934-47.213zm59.671 47.213c28.853 0 44.59-17.05 44.59-47.213v-97.05c0-30.163-15.737-47.212-44.59-47.212-28.852 0-44.59 17.049-44.59 47.213v97.049c0 30.164 15.738 47.213 44.59 47.213zm-15.081-146.23c0-13.114 5.901-18.36 15.082-18.36 9.18 0 15.082 5.246 15.082 18.36V280c0 13.115-5.902 18.36-15.082 18.36s-15.082-5.245-15.082-18.36V179.016zm169.18 97.05v-94.427c0-29.508-14.426-45.901-43.934-45.901h-46.558v186.23h46.558c29.508 0 43.934-15.738 43.934-45.902zm-60.984 20.328V162.623h16.394c9.18 0 15.082 5.246 15.082 18.36v97.05c0 13.77-5.902 18.36-15.082 18.36H533.77zm-283.279 43.278h-5.245v32.131h5.245v-32.13zm16.394 19.672l-5.246-19.016h-6.557v32.13h4.59v-23.605l6.557 23.606h5.246v-32.131h-4.59v19.016zm7.869-11.803c0 9.18 9.836 10.492 9.836 17.05 0 2.622-1.312 3.278-2.623 3.278-1.311 0-2.623-.656-2.623-3.279v-1.967h-4.59v1.967c0 5.246 2.623 7.869 7.213 7.869s7.213-2.623 7.213-7.869c0-9.18-9.836-10.492-9.836-17.049 0-2.623.656-3.279 2.623-3.279s2.623 1.312 2.623 3.279v1.312h4.59v-1.312c0-5.246-2.623-7.869-7.213-7.869s-7.213 2.623-7.213 7.869zm32.787-7.869h-15.738v4.59h5.246v27.541h5.246v-27.54h5.246v-4.59zm8.524 0h-5.246v32.131h5.246v-32.13zm13.115 32.131v-27.54h5.246v-4.59h-15.738v4.59h5.246v27.54h5.246zm15.738 0c4.59 0 7.213-2.623 7.213-7.869v-24.262h-4.59v24.918c0 2.623-1.312 3.28-2.623 3.28s-2.623-1.312-2.623-3.28v-24.918h-4.59v24.262c0 5.246 1.967 7.87 7.213 7.87zm10.492-27.54h5.246v27.54h5.246v-27.54h5.245v-4.59H355.41v4.59zm33.442 28.196c4.59 0 7.213-2.623 7.213-7.869 0-9.18-9.836-10.492-9.836-17.049 0-2.623.656-3.279 2.623-3.279s2.623 1.312 2.623 3.279v1.312h4.59v-1.312c0-5.246-1.967-7.869-7.213-7.869s-7.869 2.623-7.213 7.869c0 9.18 9.836 10.492 9.836 17.05 0 2.622-1.311 3.278-2.623 3.278s-2.623-.656-2.623-3.279v-1.967h-4.59v1.967c0 5.246 1.968 7.869 7.213 7.869zM400 339.672v24.262c0 5.246 1.967 7.87 7.213 7.87 4.59 0 7.213-2.624 7.213-7.87v-24.262h-4.59v24.918c0 2.623-1.311 3.28-2.623 3.28s-2.623-1.312-2.623-3.28v-24.918H400zm34.098 11.804v-3.935c0-4.59-2.623-7.869-7.868-8.525h-7.214v32.132h5.246v-11.804h2.623c4.59 0 7.213-2.623 7.213-7.868zm-4.59.655c0 2.623-1.311 3.279-2.623 3.279h-2.623v-11.148h2.623c1.967 0 2.623 1.312 2.623 3.279v4.59zm7.87 19.672h13.77v-4.59h-8.525v-9.18h7.213v-4.59h-7.213v-9.18h8.524v-4.59h-13.77v32.13zm28.196 0h5.246c-.656-1.311-.656-2.623-.656-3.934v-5.246c0-3.279-.656-5.246-3.28-6.558 1.968-1.31 3.28-3.278 3.28-6.557v-2.623c0-4.59-1.968-7.213-7.213-7.213h-8.525v32.131h5.246V358.69h1.967c1.968 0 3.279.655 3.279 3.934v5.246c0 2.623.656 3.279.656 3.934zm-3.279-17.705h-1.967v-9.836h2.623c1.967 0 2.623 1.312 2.623 3.279v3.279c0 2.623-1.312 3.278-3.279 3.278zM480 371.803v-32.13h-5.246v32.13H480zm17.705-27.54v-4.59h-13.77v32.13h13.77v-4.59h-8.525v-9.18h7.213v-4.59h-7.213v-9.18h8.525zm11.803 27.54c4.59 0 7.213-2.623 7.213-7.869v-24.262h-4.59v24.918c0 2.623-1.312 3.28-2.623 3.28-1.311 0-2.623-1.312-2.623-3.28v-24.918h-4.59v24.262c0 5.246 1.967 7.87 7.213 7.87zm21.64-3.934c0 2.623.655 3.279.655 3.934h4.59c-.656-1.311-.656-2.623-.656-3.934v-5.246c0-3.279-.655-5.246-3.278-6.558 1.967-1.31 3.278-3.278 3.278-6.557v-2.623c0-4.59-1.967-7.213-7.213-7.213h-7.868v32.131h5.245V358.69h1.968c1.967 0 3.279.655 3.279 3.934v5.246zm-3.28-13.77h-1.967v-9.837h2.623c1.968 0 2.624 1.312 2.624 3.279v3.279c0 2.623-1.312 3.278-3.28 3.278zm20.329-14.427v32.131h7.868c4.59 0 7.213-2.623 7.213-7.869v-16.393c0-5.246-1.967-7.869-7.213-7.869h-7.868zm10.492 7.869v16.393c0 2.624-1.312 3.28-2.624 3.28h-2.623v-22.952h2.623c1.968 0 2.624.656 2.624 3.279zm14.426 10.492h7.213v-4.59h-7.213v-9.18h8.524v-4.59h-13.77v32.13h13.77v-4.59h-8.524v-9.18zm26.885-9.18v-1.312c0-5.246-1.967-7.869-7.213-7.869s-7.87 2.623-7.213 7.869c0 9.18 9.836 10.492 9.836 17.05 0 2.622-1.312 3.278-2.623 3.278-1.312 0-2.623-.656-2.623-3.279v-1.967h-4.59v1.967c0 5.246 1.967 7.869 7.213 7.869 4.59 0 7.213-2.623 7.213-7.869 0-9.18-9.836-10.492-9.836-17.049 0-2.623.656-3.279 2.623-3.279s2.623 1.312 2.623 3.279v1.312H600zm-346.885 32.786c-4.59 0-7.213 2.624-7.213 7.87v16.393c0 5.246 2.622 7.869 7.213 7.869s7.213-2.623 7.213-7.87v-3.934h-4.59v4.59c0 2.623-1.312 3.28-2.623 3.28s-2.624-.657-2.624-3.28v-17.049c0-2.623 1.312-3.278 2.624-3.278s2.623 1.311 2.623 3.278v3.279h4.59v-3.279c0-5.245-2.623-7.869-7.213-7.869zm17.705-.655c-5.246 0-7.87 2.623-7.87 7.868v16.394c0 5.246 2.624 7.869 7.87 7.869s7.869-2.623 7.869-7.87v-16.393c0-5.245-2.624-7.868-7.87-7.868zm1.967 24.918c0 2.623-1.312 3.278-2.623 3.278-1.312 0-2.623-.655-2.623-3.278v-17.05c0-2.622 1.311-3.278 2.623-3.278 1.311 0 2.623 1.311 2.623 3.278v17.05zm19.016-1.967l-3.278-22.296h-7.214v32.132h4.59V390.82l3.935 22.295h4.59l3.279-22.951v22.95h4.59v-32.13h-7.213l-3.279 22.95zm21.64-22.951h-7.214v32.13h5.246v-11.802h2.623c4.59 0 7.213-2.624 7.213-7.87v-3.934c0-5.245-2.623-7.869-7.868-8.524zm3.278 12.459c0 2.623-1.311 3.278-2.623 3.278h-2.623v-11.147h2.623c1.968 0 2.623 1.311 2.623 3.278v4.59zm6.558 19.672h13.77v-4.59h-8.525v-9.18h7.213v-4.59h-7.213v-9.181h8.525v-4.59h-13.77v32.13zm15.737-26.885h5.246v27.54h5.246v-27.54h5.246v-4.59h-15.738v4.59zm17.705 26.885h13.77v-4.59h-8.524v-9.18h7.213v-4.59h-7.213v-9.181h8.525v-4.59h-13.77v32.13zm28.853-12.459l-5.246-19.017h-6.558v32.132h4.59v-23.607l5.902 23.607h5.902v-32.132h-4.59v19.017zm15.082-19.017c-4.59 0-7.213 2.624-7.213 7.87v16.393c0 5.246 1.967 7.869 7.213 7.869 4.59 0 7.213-2.623 7.213-7.87v-3.934h-4.59v4.59c0 2.623-1.312 3.28-2.623 3.28s-2.624-.657-2.624-3.28v-17.049c0-2.623 1.312-3.278 2.624-3.278s2.623 1.311 2.623 3.278v3.279h4.59v-3.279c0-5.245-1.968-7.869-7.213-7.869zm10.492 31.476h13.77v-4.59h-8.525v-9.18h7.213v-4.59h-7.213v-9.181h8.525v-4.59h-13.77v32.13zm23.606-32.131c-4.59 0-7.213 3.279-7.213 7.868 0 9.18 9.836 10.492 9.836 17.05 0 2.623-1.311 3.278-2.623 3.278s-2.623-.655-2.623-3.278v-1.967h-4.59v1.967c0 5.246 1.967 7.869 7.213 7.869 4.59 0 7.213-2.623 7.213-7.87 0-9.18-9.836-10.491-9.836-17.049 0-2.622.656-3.278 2.623-3.278s2.623 1.311 2.623 3.278v1.312h4.59v-1.312c0-5.245-1.967-7.868-7.213-7.868zm25.574.655h-7.869v32.132h7.869c4.59 0 7.213-2.623 7.213-7.87v-16.393c0-5.245-1.967-7.869-7.213-7.869zm1.967 24.263c0 2.623-1.311 3.278-2.623 3.278h-2.623v-22.95h2.623c1.967 0 2.623.655 2.623 3.278v16.394zm8.525 7.213h13.77v-4.59h-8.525v-9.18h7.213v-4.59h-7.213v-9.181h8.525v-4.59h-13.77v32.13zm32.13-31.476h-7.868v32.132h7.869c4.59 0 7.213-2.623 7.213-7.87v-16.393c0-5.245-1.967-7.869-7.213-7.869zm2.624 24.263c0 2.623-1.312 3.278-2.623 3.278h-2.623v-22.95h2.623c1.967 0 2.623.655 2.623 3.278v16.394zm7.869 7.213h13.77v-4.59h-8.525v-9.18h7.213v-4.59h-7.213v-9.181h8.525v-4.59h-13.77v32.13zm28.196-9.18l-3.934-22.296h-7.213v32.132h4.59V390.82l4.59 22.295h4.59l3.279-22.951v22.95h4.59v-32.13h-7.213l-3.279 22.95zM560 381.639l-5.245 32.132h4.59l.656-5.902h5.902l.655 5.902h5.246l-4.59-32.132H560zm0 21.64l1.968-16.394 2.623 16.394H560zm14.427 10.492h5.246v-32.132h-5.246v32.132zm20.328-13.115l-5.246-19.017h-6.557v32.132h4.59v-23.607l6.557 23.607h5.246v-32.132h-4.59v19.017z" fill="#26326b"/></svg>