<svg width="236" height="298" viewBox="0 0 236 298" fill="none" xmlns="http://www.w3.org/2000/svg">
<path d="M228.428 76.1377C228.428 39.521 205.173 0 167.605 0C141.226 0 125.235 15.6869 117.369 26.4529C109.503 15.6843 93.5122 0 67.1325 0C29.5647 0 6.31006 39.521 6.31006 76.1377C6.31006 119.412 40.9403 155.538 78.3628 188.134C79.5879 189.204 81.0474 189.72 82.4951 189.72C84.4792 189.72 86.4423 188.747 87.7635 186.886C90.0475 183.667 89.5439 179.003 86.6367 176.473C51.8707 146.192 19.7002 113.079 19.7002 76.1377C19.7002 51.416 34.7746 14.8356 67.1325 14.8356C98.0076 14.8356 110.866 41.8491 111.384 42.973C112.515 45.4698 114.825 47.0348 117.345 47.0478C117.355 47.0478 117.364 47.0478 117.376 47.0478C119.887 47.0478 122.192 45.4776 123.34 43.0015C123.872 41.8517 136.733 14.8382 167.608 14.8382C199.965 14.8382 215.04 51.4186 215.04 76.1403C215.04 104.976 196.126 134.027 151.844 173.187C139.79 183.143 128.566 186.823 121.091 183.05C114.239 179.587 110.308 169.592 110.308 155.624V124.639C110.308 120.543 107.31 117.221 103.613 117.221H82.3428V101.576H103.613C107.31 101.576 110.308 98.2536 110.308 94.1579V70.5886H124.432V94.1579C124.432 98.2536 127.428 101.576 131.127 101.576H152.397V117.221H131.127C127.43 117.221 124.432 120.543 124.432 124.639V155.624C124.432 159.719 127.428 163.041 131.127 163.041C134.823 163.041 137.822 159.719 137.822 155.624V132.054H159.092C162.789 132.054 165.787 128.732 165.787 124.636V94.1553C165.787 90.0597 162.789 86.7375 159.092 86.7375H137.822V63.1682C137.822 59.0726 134.823 55.7504 131.127 55.7504H103.613C99.9167 55.7504 96.9183 59.0726 96.9183 63.1682V86.7375H75.6477C71.9512 86.7375 68.9527 90.0597 68.9527 94.1553V124.636C68.9527 128.732 71.9512 132.054 75.6477 132.054H96.9183V155.624C96.9183 175.653 103.705 190.569 115.535 196.546C119.316 198.456 123.394 199.401 127.704 199.401C137.351 199.401 148.162 194.659 159.388 185.458C159.467 185.396 159.554 185.354 159.631 185.284C159.779 185.155 159.926 185.022 160.074 184.89C161.903 183.364 163.742 181.726 165.591 179.964C198.956 149.823 228.428 116.349 228.428 76.1377Z" fill="url(#paint0_linear_1_196)"/>
<path d="M52.8931 234.412V262.332H47.2931V244.172L39.8131 262.332H35.5731L28.0531 244.172V262.332H22.4531V234.412H28.8131L37.6931 255.172L46.5731 234.412H52.8931ZM79.0297 250.772C79.0297 251.572 78.9764 252.292 78.8697 252.932H62.6697C62.803 254.532 63.363 255.785 64.3497 256.692C65.3364 257.598 66.5497 258.052 67.9897 258.052C70.0697 258.052 71.5497 257.158 72.4297 255.372H78.4697C77.8297 257.505 76.603 259.265 74.7897 260.652C72.9764 262.012 70.7497 262.692 68.1097 262.692C65.9764 262.692 64.0564 262.225 62.3497 261.292C60.6697 260.332 59.3497 258.985 58.3897 257.252C57.4564 255.518 56.9897 253.518 56.9897 251.252C56.9897 248.958 57.4564 246.945 58.3897 245.212C59.323 243.478 60.6297 242.145 62.3097 241.212C63.9897 240.278 65.923 239.812 68.1097 239.812C70.2164 239.812 72.0964 240.265 73.7497 241.172C75.4297 242.078 76.723 243.372 77.6297 245.052C78.563 246.705 79.0297 248.612 79.0297 250.772ZM73.2297 249.172C73.203 247.732 72.683 246.585 71.6697 245.732C70.6564 244.852 69.4164 244.412 67.9497 244.412C66.563 244.412 65.3897 244.838 64.4297 245.692C63.4964 246.518 62.923 247.678 62.7097 249.172H73.2297ZM81.6772 251.172C81.6772 248.932 82.1172 246.945 82.9972 245.212C83.9039 243.478 85.1305 242.145 86.6772 241.212C88.2239 240.278 89.9439 239.812 91.8372 239.812C93.2772 239.812 94.6505 240.132 95.9572 240.772C97.2639 241.385 98.3039 242.212 99.0772 243.252V232.732H104.757V262.332H99.0772V259.052C98.3839 260.145 97.4105 261.025 96.1572 261.692C94.9039 262.358 93.4505 262.692 91.7972 262.692C89.9305 262.692 88.2239 262.212 86.6772 261.252C85.1305 260.292 83.9039 258.945 82.9972 257.212C82.1172 255.452 81.6772 253.438 81.6772 251.172ZM99.1172 251.252C99.1172 249.892 98.8505 248.732 98.3172 247.772C97.7839 246.785 97.0639 246.038 96.1572 245.532C95.2505 244.998 94.2772 244.732 93.2372 244.732C92.1972 244.732 91.2372 244.985 90.3572 245.492C89.4772 245.998 88.7572 246.745 88.1972 247.732C87.6639 248.692 87.3972 249.838 87.3972 251.172C87.3972 252.505 87.6639 253.678 88.1972 254.692C88.7572 255.678 89.4772 256.438 90.3572 256.972C91.2639 257.505 92.2239 257.772 93.2372 257.772C94.2772 257.772 95.2505 257.518 96.1572 257.012C97.0639 256.478 97.7839 255.732 98.3172 254.772C98.8505 253.785 99.1172 252.612 99.1172 251.252ZM133.387 234.412V262.332H127.787V250.452H115.827V262.332H110.227V234.412H115.827V245.892H127.787V234.412H133.387ZM159.498 250.772C159.498 251.572 159.445 252.292 159.338 252.932H143.138C143.272 254.532 143.832 255.785 144.818 256.692C145.805 257.598 147.018 258.052 148.458 258.052C150.538 258.052 152.018 257.158 152.898 255.372H158.938C158.298 257.505 157.072 259.265 155.258 260.652C153.445 262.012 151.218 262.692 148.578 262.692C146.445 262.692 144.525 262.225 142.818 261.292C141.138 260.332 139.818 258.985 138.858 257.252C137.925 255.518 137.458 253.518 137.458 251.252C137.458 248.958 137.925 246.945 138.858 245.212C139.792 243.478 141.098 242.145 142.778 241.212C144.458 240.278 146.392 239.812 148.578 239.812C150.685 239.812 152.565 240.265 154.218 241.172C155.898 242.078 157.192 243.372 158.098 245.052C159.032 246.705 159.498 248.612 159.498 250.772ZM153.698 249.172C153.672 247.732 153.152 246.585 152.138 245.732C151.125 244.852 149.885 244.412 148.418 244.412C147.032 244.412 145.858 244.838 144.898 245.692C143.965 246.518 143.392 247.678 143.178 249.172H153.698ZM162.146 251.172C162.146 248.932 162.586 246.945 163.466 245.212C164.373 243.478 165.586 242.145 167.106 241.212C168.653 240.278 170.373 239.812 172.266 239.812C173.919 239.812 175.359 240.145 176.586 240.812C177.839 241.478 178.839 242.318 179.586 243.332V240.172H185.226V262.332H179.586V259.092C178.866 260.132 177.866 260.998 176.586 261.692C175.333 262.358 173.879 262.692 172.226 262.692C170.359 262.692 168.653 262.212 167.106 261.252C165.586 260.292 164.373 258.945 163.466 257.212C162.586 255.452 162.146 253.438 162.146 251.172ZM179.586 251.252C179.586 249.892 179.319 248.732 178.786 247.772C178.253 246.785 177.533 246.038 176.626 245.532C175.719 244.998 174.746 244.732 173.706 244.732C172.666 244.732 171.706 244.985 170.826 245.492C169.946 245.998 169.226 246.745 168.666 247.732C168.133 248.692 167.866 249.838 167.866 251.172C167.866 252.505 168.133 253.678 168.666 254.692C169.226 255.678 169.946 256.438 170.826 256.972C171.733 257.505 172.693 257.772 173.706 257.772C174.746 257.772 175.719 257.518 176.626 257.012C177.533 256.478 178.253 255.732 178.786 254.772C179.319 253.785 179.586 252.612 179.586 251.252ZM189.255 251.172C189.255 248.932 189.695 246.945 190.575 245.212C191.482 243.478 192.709 242.145 194.255 241.212C195.802 240.278 197.522 239.812 199.415 239.812C200.855 239.812 202.229 240.132 203.535 240.772C204.842 241.385 205.882 242.212 206.655 243.252V232.732H212.335V262.332H206.655V259.052C205.962 260.145 204.989 261.025 203.735 261.692C202.482 262.358 201.029 262.692 199.375 262.692C197.509 262.692 195.802 262.212 194.255 261.252C192.709 260.292 191.482 258.945 190.575 257.212C189.695 255.452 189.255 253.438 189.255 251.172ZM206.695 251.252C206.695 249.892 206.429 248.732 205.895 247.772C205.362 246.785 204.642 246.038 203.735 245.532C202.829 244.998 201.855 244.732 200.815 244.732C199.775 244.732 198.815 244.985 197.935 245.492C197.055 245.998 196.335 246.745 195.775 247.732C195.242 248.692 194.975 249.838 194.975 251.172C194.975 252.505 195.242 253.678 195.775 254.692C196.335 255.678 197.055 256.438 197.935 256.972C198.842 257.505 199.802 257.772 200.815 257.772C201.855 257.772 202.829 257.518 203.735 257.012C204.642 256.478 205.362 255.732 205.895 254.772C206.429 253.785 206.695 252.612 206.695 251.252Z" fill="#223A6A"/>
<path d="M51.6081 279.169V290.337H49.3681V283.073L46.3761 290.337H44.6801L41.6721 283.073V290.337H39.4321V279.169H41.9761L45.5281 287.473L49.0801 279.169H51.6081ZM62.0628 285.713C62.0628 286.033 62.0414 286.321 61.9988 286.577H55.5188C55.5721 287.217 55.7961 287.718 56.1908 288.081C56.5854 288.444 57.0708 288.625 57.6468 288.625C58.4788 288.625 59.0708 288.268 59.4228 287.553H61.8388C61.5828 288.406 61.0921 289.11 60.3668 289.665C59.6414 290.209 58.7508 290.481 57.6948 290.481C56.8414 290.481 56.0734 290.294 55.3908 289.921C54.7188 289.537 54.1908 288.998 53.8068 288.305C53.4334 287.612 53.2467 286.812 53.2467 285.905C53.2467 284.988 53.4334 284.182 53.8068 283.489C54.1801 282.796 54.7028 282.262 55.3748 281.889C56.0468 281.516 56.8201 281.329 57.6948 281.329C58.5374 281.329 59.2894 281.51 59.9508 281.873C60.6228 282.236 61.1401 282.753 61.5028 283.425C61.8761 284.086 62.0628 284.849 62.0628 285.713ZM59.7428 285.073C59.7321 284.497 59.5241 284.038 59.1188 283.697C58.7134 283.345 58.2174 283.169 57.6308 283.169C57.0761 283.169 56.6068 283.34 56.2228 283.681C55.8494 284.012 55.6201 284.476 55.5348 285.073H59.7428ZM63.1217 285.873C63.1217 284.977 63.2977 284.182 63.6497 283.489C64.0124 282.796 64.5031 282.262 65.1218 281.889C65.7404 281.516 66.4284 281.329 67.1858 281.329C67.7618 281.329 68.3111 281.457 68.8338 281.713C69.3564 281.958 69.7724 282.289 70.0818 282.705V278.497H72.3538V290.337H70.0818V289.025C69.8044 289.462 69.4151 289.814 68.9138 290.081C68.4124 290.348 67.8311 290.481 67.1698 290.481C66.4231 290.481 65.7404 290.289 65.1218 289.905C64.5031 289.521 64.0124 288.982 63.6497 288.289C63.2977 287.585 63.1217 286.78 63.1217 285.873ZM70.0978 285.905C70.0978 285.361 69.9911 284.897 69.7778 284.513C69.5644 284.118 69.2764 283.82 68.9138 283.617C68.5511 283.404 68.1618 283.297 67.7458 283.297C67.3298 283.297 66.9458 283.398 66.5938 283.601C66.2418 283.804 65.9538 284.102 65.7298 284.497C65.5164 284.881 65.4098 285.34 65.4098 285.873C65.4098 286.406 65.5164 286.876 65.7298 287.281C65.9538 287.676 66.2418 287.98 66.5938 288.193C66.9564 288.406 67.3404 288.513 67.7458 288.513C68.1618 288.513 68.5511 288.412 68.9138 288.209C69.2764 287.996 69.5644 287.697 69.7778 287.313C69.9911 286.918 70.0978 286.449 70.0978 285.905ZM75.6775 280.417C75.2828 280.417 74.9522 280.294 74.6855 280.049C74.4295 279.793 74.3015 279.478 74.3015 279.105C74.3015 278.732 74.4295 278.422 74.6855 278.177C74.9522 277.921 75.2828 277.793 75.6775 277.793C76.0722 277.793 76.3975 277.921 76.6535 278.177C76.9202 278.422 77.0535 278.732 77.0535 279.105C77.0535 279.478 76.9202 279.793 76.6535 280.049C76.3975 280.294 76.0722 280.417 75.6775 280.417ZM76.7815 281.473V290.337H74.5415V281.473H76.7815ZM78.4186 285.905C78.4186 284.988 78.6053 284.188 78.9786 283.505C79.352 282.812 79.8693 282.278 80.5306 281.905C81.192 281.521 81.9493 281.329 82.8026 281.329C83.9013 281.329 84.808 281.606 85.5226 282.161C86.248 282.705 86.7333 283.473 86.9786 284.465H84.5626C84.4346 284.081 84.216 283.782 83.9066 283.569C83.608 283.345 83.2346 283.233 82.7866 283.233C82.1466 283.233 81.64 283.468 81.2666 283.937C80.8933 284.396 80.7066 285.052 80.7066 285.905C80.7066 286.748 80.8933 287.404 81.2666 287.873C81.64 288.332 82.1466 288.561 82.7866 288.561C83.6933 288.561 84.2853 288.156 84.5626 287.345H86.9786C86.7333 288.305 86.248 289.068 85.5226 289.633C84.7973 290.198 83.8906 290.481 82.8026 290.481C81.9493 290.481 81.192 290.294 80.5306 289.921C79.8693 289.537 79.352 289.004 78.9786 288.321C78.6053 287.628 78.4186 286.822 78.4186 285.905ZM88.0436 285.873C88.0436 284.977 88.2196 284.182 88.5716 283.489C88.9343 282.796 89.4196 282.262 90.0276 281.889C90.6463 281.516 91.3343 281.329 92.0916 281.329C92.753 281.329 93.329 281.462 93.8196 281.729C94.321 281.996 94.721 282.332 95.0196 282.737V281.473H97.2756V290.337H95.0196V289.041C94.7316 289.457 94.3316 289.804 93.8196 290.081C93.3183 290.348 92.737 290.481 92.0756 290.481C91.329 290.481 90.6463 290.289 90.0276 289.905C89.4196 289.521 88.9343 288.982 88.5716 288.289C88.2196 287.585 88.0436 286.78 88.0436 285.873ZM95.0196 285.905C95.0196 285.361 94.913 284.897 94.6996 284.513C94.4863 284.118 94.1983 283.82 93.8356 283.617C93.473 283.404 93.0836 283.297 92.6676 283.297C92.2516 283.297 91.8676 283.398 91.5156 283.601C91.1636 283.804 90.8756 284.102 90.6516 284.497C90.4383 284.881 90.3316 285.34 90.3316 285.873C90.3316 286.406 90.4383 286.876 90.6516 287.281C90.8756 287.676 91.1636 287.98 91.5156 288.193C91.8783 288.406 92.2623 288.513 92.6676 288.513C93.0836 288.513 93.473 288.412 93.8356 288.209C94.1983 287.996 94.4863 287.697 94.6996 287.313C94.913 286.918 95.0196 286.449 95.0196 285.905ZM101.703 278.497V290.337H99.4634V278.497H101.703ZM109.969 282.753C110.257 282.348 110.652 282.012 111.153 281.745C111.665 281.468 112.246 281.329 112.897 281.329C113.654 281.329 114.337 281.516 114.945 281.889C115.564 282.262 116.049 282.796 116.401 283.489C116.764 284.172 116.945 284.966 116.945 285.873C116.945 286.78 116.764 287.585 116.401 288.289C116.049 288.982 115.564 289.521 114.945 289.905C114.337 290.289 113.654 290.481 112.897 290.481C112.246 290.481 111.67 290.348 111.169 290.081C110.678 289.814 110.278 289.478 109.969 289.073V294.561H107.729V281.473H109.969V282.753ZM114.657 285.873C114.657 285.34 114.545 284.881 114.321 284.497C114.108 284.102 113.82 283.804 113.457 283.601C113.105 283.398 112.721 283.297 112.305 283.297C111.9 283.297 111.516 283.404 111.153 283.617C110.801 283.82 110.513 284.118 110.289 284.513C110.076 284.908 109.969 285.372 109.969 285.905C109.969 286.438 110.076 286.902 110.289 287.297C110.513 287.692 110.801 287.996 111.153 288.209C111.516 288.412 111.9 288.513 112.305 288.513C112.721 288.513 113.105 288.406 113.457 288.193C113.82 287.98 114.108 287.676 114.321 287.281C114.545 286.886 114.657 286.417 114.657 285.873ZM120.813 278.497V290.337H118.573V278.497H120.813ZM122.45 285.873C122.45 284.977 122.626 284.182 122.978 283.489C123.341 282.796 123.826 282.262 124.434 281.889C125.053 281.516 125.741 281.329 126.498 281.329C127.159 281.329 127.735 281.462 128.226 281.729C128.727 281.996 129.127 282.332 129.426 282.737V281.473H131.682V290.337H129.426V289.041C129.138 289.457 128.738 289.804 128.226 290.081C127.725 290.348 127.143 290.481 126.482 290.481C125.735 290.481 125.053 290.289 124.434 289.905C123.826 289.521 123.341 288.982 122.978 288.289C122.626 287.585 122.45 286.78 122.45 285.873ZM129.426 285.905C129.426 285.361 129.319 284.897 129.106 284.513C128.893 284.118 128.605 283.82 128.242 283.617C127.879 283.404 127.49 283.297 127.074 283.297C126.658 283.297 126.274 283.398 125.922 283.601C125.57 283.804 125.282 284.102 125.058 284.497C124.845 284.881 124.738 285.34 124.738 285.873C124.738 286.406 124.845 286.876 125.058 287.281C125.282 287.676 125.57 287.98 125.922 288.193C126.285 288.406 126.669 288.513 127.074 288.513C127.49 288.513 127.879 288.412 128.242 288.209C128.605 287.996 128.893 287.697 129.106 287.313C129.319 286.918 129.426 286.449 129.426 285.905ZM136.478 283.313V287.601C136.478 287.9 136.547 288.118 136.686 288.257C136.835 288.385 137.08 288.449 137.422 288.449H138.462V290.337H137.054C135.166 290.337 134.222 289.42 134.222 287.585V283.313H133.166V281.473H134.222V279.281H136.478V281.473H138.462V283.313H136.478ZM148.313 285.713C148.313 286.033 148.291 286.321 148.249 286.577H141.769C141.822 287.217 142.046 287.718 142.441 288.081C142.835 288.444 143.321 288.625 143.897 288.625C144.729 288.625 145.321 288.268 145.673 287.553H148.089C147.833 288.406 147.342 289.11 146.617 289.665C145.891 290.209 145.001 290.481 143.945 290.481C143.091 290.481 142.323 290.294 141.641 289.921C140.969 289.537 140.441 288.998 140.057 288.305C139.683 287.612 139.497 286.812 139.497 285.905C139.497 284.988 139.683 284.182 140.057 283.489C140.43 282.796 140.953 282.262 141.625 281.889C142.297 281.516 143.07 281.329 143.945 281.329C144.787 281.329 145.539 281.51 146.201 281.873C146.873 282.236 147.39 282.753 147.753 283.425C148.126 284.086 148.313 284.849 148.313 285.713ZM145.993 285.073C145.982 284.497 145.774 284.038 145.369 283.697C144.963 283.345 144.467 283.169 143.881 283.169C143.326 283.169 142.857 283.34 142.473 283.681C142.099 284.012 141.87 284.476 141.785 285.073H145.993ZM154.012 283.313H152.46V290.337H150.188V283.313H149.18V281.473H150.188V281.025C150.188 279.937 150.497 279.137 151.116 278.625C151.734 278.113 152.668 277.873 153.916 277.905V279.793C153.372 279.782 152.993 279.873 152.78 280.065C152.566 280.257 152.46 280.604 152.46 281.105V281.473H154.012V283.313ZM159.399 290.481C158.546 290.481 157.778 290.294 157.095 289.921C156.413 289.537 155.874 288.998 155.479 288.305C155.095 287.612 154.903 286.812 154.903 285.905C154.903 284.998 155.101 284.198 155.495 283.505C155.901 282.812 156.45 282.278 157.143 281.905C157.837 281.521 158.61 281.329 159.463 281.329C160.317 281.329 161.09 281.521 161.783 281.905C162.477 282.278 163.021 282.812 163.415 283.505C163.821 284.198 164.023 284.998 164.023 285.905C164.023 286.812 163.815 287.612 163.399 288.305C162.994 288.998 162.439 289.537 161.735 289.921C161.042 290.294 160.263 290.481 159.399 290.481ZM159.399 288.529C159.805 288.529 160.183 288.433 160.535 288.241C160.898 288.038 161.186 287.74 161.399 287.345C161.613 286.95 161.719 286.47 161.719 285.905C161.719 285.062 161.495 284.417 161.047 283.969C160.61 283.51 160.071 283.281 159.431 283.281C158.791 283.281 158.253 283.51 157.815 283.969C157.389 284.417 157.175 285.062 157.175 285.905C157.175 286.748 157.383 287.398 157.799 287.857C158.226 288.305 158.759 288.529 159.399 288.529ZM167.907 282.849C168.195 282.38 168.568 282.012 169.027 281.745C169.496 281.478 170.029 281.345 170.627 281.345V283.697H170.035C169.331 283.697 168.797 283.862 168.435 284.193C168.083 284.524 167.907 285.1 167.907 285.921V290.337H165.667V281.473H167.907V282.849ZM183.143 281.345C184.231 281.345 185.106 281.681 185.767 282.353C186.439 283.014 186.775 283.942 186.775 285.137V290.337H184.535V285.441C184.535 284.748 184.359 284.22 184.007 283.857C183.655 283.484 183.175 283.297 182.567 283.297C181.959 283.297 181.474 283.484 181.111 283.857C180.759 284.22 180.583 284.748 180.583 285.441V290.337H178.343V285.441C178.343 284.748 178.167 284.22 177.815 283.857C177.463 283.484 176.983 283.297 176.375 283.297C175.757 283.297 175.266 283.484 174.903 283.857C174.551 284.22 174.375 284.748 174.375 285.441V290.337H172.135V281.473H174.375V282.545C174.663 282.172 175.031 281.878 175.479 281.665C175.938 281.452 176.439 281.345 176.983 281.345C177.677 281.345 178.295 281.494 178.839 281.793C179.383 282.081 179.805 282.497 180.103 283.041C180.391 282.529 180.807 282.118 181.351 281.809C181.906 281.5 182.503 281.345 183.143 281.345ZM197.141 285.713C197.141 286.033 197.12 286.321 197.077 286.577H190.597C190.65 287.217 190.874 287.718 191.269 288.081C191.664 288.444 192.149 288.625 192.725 288.625C193.557 288.625 194.149 288.268 194.501 287.553H196.917C196.661 288.406 196.17 289.11 195.445 289.665C194.72 290.209 193.829 290.481 192.773 290.481C191.92 290.481 191.152 290.294 190.469 289.921C189.797 289.537 189.269 288.998 188.885 288.305C188.512 287.612 188.325 286.812 188.325 285.905C188.325 284.988 188.512 284.182 188.885 283.489C189.258 282.796 189.781 282.262 190.453 281.889C191.125 281.516 191.898 281.329 192.773 281.329C193.616 281.329 194.368 281.51 195.029 281.873C195.701 282.236 196.218 282.753 196.581 283.425C196.954 284.086 197.141 284.849 197.141 285.713ZM194.821 285.073C194.81 284.497 194.602 284.038 194.197 283.697C193.792 283.345 193.296 283.169 192.709 283.169C192.154 283.169 191.685 283.34 191.301 283.681C190.928 284.012 190.698 284.476 190.613 285.073H194.821Z" fill="#213359"/>
<defs>
<linearGradient id="paint0_linear_1_196" x1="6.31193" y1="99.6992" x2="228.429" y2="99.6992" gradientUnits="userSpaceOnUse">
<stop stop-color="#407CE2"/>
<stop offset="0.9997" stop-color="#223A6A"/>
</linearGradient>
</defs>
</svg>
