<svg width="186" height="201" viewBox="0 0 186 201" fill="none" xmlns="http://www.w3.org/2000/svg">
<path d="M3.99 158.716V128.728H8.526V154.81H21.336V158.716H3.99ZM30.1256 136.078V158.716H25.6736V136.078H30.1256ZM27.9416 127.468C28.6136 127.468 29.2016 127.664 29.7056 128.056C30.2096 128.448 30.4616 129.106 30.4616 130.03C30.4616 130.926 30.2096 131.584 29.7056 132.004C29.2016 132.396 28.6136 132.592 27.9416 132.592C27.2136 132.592 26.5976 132.396 26.0936 132.004C25.6176 131.584 25.3796 130.926 25.3796 130.03C25.3796 129.106 25.6176 128.448 26.0936 128.056C26.5976 127.664 27.2136 127.468 27.9416 127.468ZM48.2529 135.658C50.8849 135.658 52.9009 136.316 54.3009 137.632C55.7009 138.948 56.4009 141.062 56.4009 143.974V158.716H51.9909V144.604C51.9909 142.84 51.6129 141.524 50.8569 140.656C50.1289 139.76 48.9529 139.312 47.3289 139.312C45.0329 139.312 43.4369 139.998 42.5409 141.37C41.6729 142.742 41.2389 144.716 41.2389 147.292V158.716H36.7869V136.078H40.3149L40.9449 139.102H41.1969C41.7009 138.318 42.3169 137.674 43.0449 137.17C43.7729 136.666 44.5849 136.288 45.4809 136.036C46.3769 135.784 47.3009 135.658 48.2529 135.658ZM71.816 135.658C73.804 135.658 75.512 136.078 76.94 136.918C78.368 137.73 79.46 138.906 80.216 140.446C81 141.986 81.392 143.806 81.392 145.906V148.342H66.188C66.244 150.666 66.846 152.444 67.994 153.676C69.17 154.908 70.808 155.524 72.908 155.524C74.364 155.524 75.652 155.398 76.772 155.146C77.92 154.866 79.096 154.46 80.3 153.928V157.624C79.18 158.128 78.032 158.506 76.856 158.758C75.708 159.01 74.336 159.136 72.74 159.136C70.556 159.136 68.624 158.702 66.944 157.834C65.264 156.966 63.948 155.678 62.996 153.97C62.072 152.234 61.61 150.106 61.61 147.586C61.61 145.038 62.03 142.882 62.87 141.118C63.738 139.354 64.928 138.01 66.44 137.086C67.98 136.134 69.772 135.658 71.816 135.658ZM71.816 139.102C70.22 139.102 68.932 139.62 67.952 140.656C67 141.692 66.44 143.162 66.272 145.066H76.94C76.94 143.89 76.758 142.854 76.394 141.958C76.03 141.062 75.47 140.362 74.714 139.858C73.958 139.354 72.992 139.102 71.816 139.102ZM106.567 147.376C106.567 149.252 106.315 150.918 105.811 152.374C105.307 153.83 104.593 155.062 103.669 156.07C102.745 157.078 101.625 157.848 100.309 158.38C98.9932 158.884 97.5092 159.136 95.8572 159.136C94.3452 159.136 92.9452 158.884 91.6572 158.38C90.3692 157.848 89.2492 157.078 88.2972 156.07C87.3732 155.062 86.6452 153.83 86.1132 152.374C85.5812 150.918 85.3152 149.238 85.3152 147.334C85.3152 144.842 85.7352 142.728 86.5752 140.992C87.4432 139.256 88.6752 137.94 90.2712 137.044C91.8952 136.12 93.7992 135.658 95.9832 135.658C98.0552 135.658 99.8752 136.12 101.443 137.044C103.039 137.94 104.285 139.256 105.181 140.992C106.105 142.728 106.567 144.856 106.567 147.376ZM89.8932 147.376C89.8932 149.056 90.1032 150.512 90.5232 151.744C90.9432 152.948 91.6012 153.872 92.4972 154.516C93.3932 155.16 94.5412 155.482 95.9412 155.482C97.3412 155.482 98.4892 155.16 99.3852 154.516C100.281 153.872 100.939 152.948 101.359 151.744C101.779 150.512 101.989 149.056 101.989 147.376C101.989 145.64 101.765 144.184 101.317 143.008C100.897 141.832 100.239 140.936 99.3432 140.32C98.4752 139.676 97.3272 139.354 95.8992 139.354C93.7992 139.354 92.2732 140.054 91.3212 141.454C90.3692 142.854 89.8932 144.828 89.8932 147.376ZM126.917 152.332C126.917 153.816 126.553 155.062 125.825 156.07C125.097 157.078 124.047 157.848 122.675 158.38C121.303 158.884 119.651 159.136 117.719 159.136C116.123 159.136 114.751 159.01 113.603 158.758C112.483 158.534 111.447 158.198 110.495 157.75V153.844C111.503 154.32 112.665 154.754 113.981 155.146C115.297 155.51 116.585 155.692 117.845 155.692C119.525 155.692 120.729 155.426 121.457 154.894C122.213 154.362 122.591 153.648 122.591 152.752C122.591 152.248 122.451 151.8 122.171 151.408C121.891 150.988 121.359 150.568 120.575 150.148C119.819 149.7 118.699 149.196 117.215 148.636C115.787 148.048 114.569 147.474 113.561 146.914C112.553 146.326 111.783 145.64 111.251 144.856C110.719 144.044 110.453 143.008 110.453 141.748C110.453 139.788 111.237 138.29 112.805 137.254C114.401 136.19 116.501 135.658 119.105 135.658C120.477 135.658 121.765 135.798 122.969 136.078C124.201 136.33 125.391 136.722 126.539 137.254L125.069 140.656C124.425 140.348 123.753 140.096 123.053 139.9C122.381 139.676 121.695 139.494 120.995 139.354C120.323 139.214 119.623 139.144 118.895 139.144C117.551 139.144 116.529 139.354 115.829 139.774C115.129 140.194 114.779 140.782 114.779 141.538C114.779 142.07 114.933 142.532 115.241 142.924C115.577 143.316 116.151 143.708 116.963 144.1C117.775 144.492 118.881 144.968 120.281 145.528C121.681 146.06 122.871 146.606 123.851 147.166C124.859 147.726 125.615 148.412 126.119 149.224C126.651 150.036 126.917 151.072 126.917 152.332ZM159.905 135.658C159.905 137.002 159.639 138.178 159.107 139.186C158.603 140.166 157.875 140.964 156.923 141.58C155.971 142.196 154.879 142.644 153.647 142.924V143.092C156.055 143.372 157.847 144.128 159.023 145.36C160.227 146.564 160.829 148.16 160.829 150.148C160.829 151.884 160.409 153.438 159.569 154.81C158.757 156.154 157.483 157.218 155.747 158.002C154.039 158.758 151.841 159.136 149.153 159.136C147.557 159.136 146.073 159.01 144.701 158.758C143.329 158.506 142.027 158.086 140.795 157.498V153.466C142.055 154.11 143.399 154.6 144.827 154.936C146.283 155.272 147.669 155.44 148.985 155.44C151.533 155.44 153.367 154.964 154.487 154.012C155.607 153.032 156.167 151.674 156.167 149.938C156.167 148.818 155.873 147.908 155.285 147.208C154.697 146.48 153.801 145.948 152.597 145.612C151.393 145.248 149.895 145.066 148.103 145.066H145.373V141.412H148.145C149.853 141.412 151.239 141.202 152.303 140.782C153.367 140.334 154.151 139.718 154.655 138.934C155.159 138.15 155.411 137.254 155.411 136.246C155.411 134.902 154.963 133.866 154.067 133.138C153.199 132.382 151.939 132.004 150.287 132.004C149.279 132.004 148.341 132.116 147.473 132.34C146.633 132.564 145.863 132.858 145.163 133.222C144.463 133.586 143.777 133.992 143.105 134.44L140.921 131.374C141.677 130.814 142.517 130.296 143.441 129.82C144.393 129.344 145.443 128.98 146.591 128.728C147.767 128.448 149.041 128.308 150.413 128.308C153.521 128.308 155.873 128.994 157.469 130.366C159.093 131.71 159.905 133.474 159.905 135.658ZM6.792 192.956C5.672 192.956 4.736 192.772 3.984 192.404C3.248 192.036 2.688 191.5 2.304 190.796C1.936 190.076 1.752 189.228 1.752 188.252C1.752 187.964 1.768 187.636 1.8 187.268C1.848 186.884 1.92 186.484 2.016 186.068L4.248 175.58H6.816L4.56 186.14C4.48 186.492 4.416 186.852 4.368 187.22C4.336 187.572 4.32 187.868 4.32 188.108C4.32 188.924 4.544 189.564 4.992 190.028C5.44 190.492 6.12 190.724 7.032 190.724C7.832 190.724 8.488 190.572 9 190.268C9.528 189.948 9.952 189.484 10.272 188.876C10.608 188.252 10.872 187.492 11.064 186.596L13.416 175.58H15.984L13.584 186.812C13.328 188.06 12.928 189.148 12.384 190.076C11.84 190.988 11.112 191.7 10.2 192.212C9.304 192.708 8.168 192.956 6.792 192.956ZM18.9285 192.956C18.1765 192.956 17.5125 192.884 16.9365 192.74C16.3605 192.596 15.8485 192.404 15.4005 192.164L15.4245 189.932C15.8725 190.204 16.3925 190.444 16.9845 190.652C17.5925 190.86 18.2085 190.964 18.8325 190.964C19.3605 190.964 19.8005 190.892 20.1525 190.748C20.5205 190.588 20.8085 190.372 21.0165 190.1C21.2245 189.812 21.3285 189.484 21.3285 189.116C21.3285 188.828 21.2725 188.58 21.1605 188.372C21.0485 188.148 20.8485 187.924 20.5605 187.7C20.2885 187.476 19.8885 187.212 19.3605 186.908C18.8165 186.572 18.3605 186.236 17.9925 185.9C17.6245 185.564 17.3445 185.196 17.1525 184.796C16.9605 184.38 16.8645 183.9 16.8645 183.356C16.8805 182.556 17.0645 181.876 17.4165 181.316C17.7685 180.756 18.2725 180.324 18.9285 180.02C19.6005 179.7 20.3925 179.54 21.3045 179.54C22.0405 179.54 22.7285 179.628 23.3685 179.804C24.0085 179.98 24.5845 180.212 25.0965 180.5L24.2805 182.42C23.8645 182.212 23.4085 182.02 22.9125 181.844C22.4325 181.668 21.8885 181.58 21.2805 181.58C20.7365 181.58 20.2885 181.724 19.9365 182.012C19.5845 182.3 19.4085 182.684 19.4085 183.164C19.4085 183.404 19.4645 183.628 19.5765 183.836C19.6885 184.028 19.8805 184.236 20.1525 184.46C20.4245 184.668 20.8005 184.924 21.2805 185.228C21.7925 185.532 22.2485 185.844 22.6485 186.164C23.0485 186.484 23.3605 186.86 23.5845 187.292C23.8085 187.708 23.9205 188.22 23.9205 188.828C23.9045 189.724 23.6885 190.484 23.2725 191.108C22.8725 191.716 22.2965 192.18 21.5445 192.5C20.8085 192.804 19.9365 192.956 18.9285 192.956ZM30.7618 192.956C29.8178 192.956 29.0018 192.764 28.3138 192.38C27.6258 191.996 27.0978 191.444 26.7298 190.724C26.3778 190.004 26.2018 189.132 26.2018 188.108C26.2018 187.068 26.3458 186.044 26.6338 185.036C26.9218 184.012 27.3458 183.092 27.9058 182.276C28.4658 181.444 29.1458 180.78 29.9458 180.284C30.7618 179.788 31.6818 179.54 32.7058 179.54C33.9378 179.54 34.8658 179.82 35.4898 180.38C36.1138 180.94 36.4258 181.7 36.4258 182.66C36.4258 183.316 36.2818 183.924 35.9938 184.484C35.7058 185.044 35.2738 185.532 34.6978 185.948C34.1218 186.348 33.3778 186.668 32.4658 186.908C31.5698 187.132 30.4978 187.244 29.2498 187.244H28.7938C28.7778 187.388 28.7618 187.532 28.7458 187.676C28.7458 187.804 28.7458 187.932 28.7458 188.06C28.7458 188.956 28.9538 189.66 29.3698 190.172C29.7858 190.684 30.4178 190.94 31.2658 190.94C31.8738 190.94 32.4338 190.852 32.9458 190.676C33.4738 190.5 34.0658 190.252 34.7218 189.932L34.6978 191.996C34.0898 192.284 33.4818 192.516 32.8738 192.692C32.2818 192.868 31.5778 192.956 30.7618 192.956ZM29.3938 185.348C30.2898 185.348 31.0738 185.26 31.7458 185.084C32.4338 184.908 32.9698 184.636 33.3538 184.268C33.7538 183.884 33.9538 183.404 33.9538 182.828C33.9538 182.444 33.8338 182.132 33.5938 181.892C33.3698 181.652 33.0098 181.532 32.5138 181.532C32.0658 181.532 31.6178 181.684 31.1698 181.988C30.7218 182.292 30.3138 182.732 29.9458 183.308C29.5938 183.868 29.3218 184.548 29.1298 185.348H29.3938ZM37.1792 192.716L39.9392 179.78H41.9312L41.6672 182.18H41.7872C42.1232 181.7 42.4752 181.268 42.8432 180.884C43.2112 180.484 43.6192 180.164 44.0672 179.924C44.5152 179.668 45.0192 179.54 45.5792 179.54C45.7872 179.54 46.0032 179.556 46.2272 179.588C46.4512 179.604 46.6432 179.636 46.8032 179.684L46.2272 182.036C46.0512 181.988 45.8672 181.948 45.6752 181.916C45.4832 181.884 45.2832 181.868 45.0752 181.868C44.5632 181.868 44.0832 182.004 43.6352 182.276C43.2032 182.548 42.8112 182.916 42.4592 183.38C42.1072 183.844 41.8032 184.372 41.5472 184.964C41.2912 185.556 41.0912 186.18 40.9472 186.836L39.6992 192.716H37.1792ZM51.9467 192.716L55.5707 175.58H59.0747L60.1787 189.236H60.2507L67.1867 175.58H70.9307L67.3547 192.716H64.8827L66.8987 183.14C67.0267 182.484 67.1627 181.852 67.3067 181.244C67.4507 180.636 67.5867 180.068 67.7147 179.54C67.8587 179.012 67.9787 178.564 68.0747 178.196H68.0267L60.5867 192.716H58.4027L57.2267 178.22H57.1307C57.0987 178.54 57.0347 178.98 56.9387 179.54C56.8587 180.084 56.7627 180.668 56.6507 181.292C56.5387 181.916 56.4187 182.524 56.2907 183.116L54.3227 192.716H51.9467ZM74.7641 192.956C74.1401 192.956 73.5801 192.796 73.0841 192.476C72.5881 192.156 72.1881 191.668 71.8841 191.012C71.5961 190.356 71.4521 189.532 71.4521 188.54C71.4521 187.612 71.5401 186.708 71.7161 185.828C71.9081 184.948 72.1801 184.132 72.5321 183.38C72.8841 182.612 73.3001 181.94 73.7801 181.364C74.2761 180.788 74.8361 180.34 75.4601 180.02C76.0841 179.7 76.7481 179.54 77.4521 179.54C77.9961 179.54 78.4601 179.636 78.8441 179.828C79.2281 180.02 79.5561 180.284 79.8281 180.62C80.1001 180.94 80.3241 181.292 80.5001 181.676H80.5961L81.3161 179.78H83.2601L80.5001 192.716H78.5321L78.7961 190.532H78.7241C78.4041 190.98 78.0441 191.388 77.6441 191.756C77.2441 192.124 76.8041 192.42 76.3241 192.644C75.8601 192.852 75.3401 192.956 74.7641 192.956ZM75.7241 190.868C76.2361 190.868 76.7321 190.66 77.2121 190.244C77.7081 189.828 78.1481 189.276 78.5321 188.588C78.9321 187.884 79.2281 187.108 79.4201 186.26C79.5321 185.828 79.6041 185.42 79.6361 185.036C79.6681 184.652 79.6841 184.3 79.6841 183.98C79.6841 183.292 79.5161 182.732 79.1801 182.3C78.8441 181.852 78.3801 181.628 77.7881 181.628C77.3561 181.628 76.9481 181.756 76.5641 182.012C76.1961 182.268 75.8521 182.612 75.5321 183.044C75.2281 183.476 74.9641 183.988 74.7401 184.58C74.5161 185.156 74.3401 185.78 74.2121 186.452C74.0841 187.108 74.0201 187.788 74.0201 188.492C74.0201 189.292 74.1641 189.892 74.4521 190.292C74.7561 190.676 75.1801 190.868 75.7241 190.868ZM83.6466 192.716L86.4306 179.732H88.5186L88.2546 182.132H88.3026C88.6226 181.684 88.9666 181.26 89.3346 180.86C89.7186 180.46 90.1586 180.132 90.6546 179.876C91.1506 179.62 91.7106 179.492 92.3346 179.492C93.0066 179.492 93.5746 179.628 94.0386 179.9C94.5186 180.172 94.8786 180.556 95.1186 181.052C95.3746 181.548 95.5026 182.156 95.5026 182.876C95.5026 183.212 95.4706 183.572 95.4066 183.956C95.3586 184.34 95.2946 184.692 95.2146 185.012L93.5826 192.716H90.9666L92.6466 184.748C92.7106 184.412 92.7586 184.124 92.7906 183.884C92.8386 183.628 92.8626 183.396 92.8626 183.188C92.8626 182.692 92.7506 182.316 92.5266 182.06C92.3026 181.804 91.9506 181.676 91.4706 181.676C90.9906 181.676 90.4866 181.876 89.9586 182.276C89.4306 182.676 88.9426 183.284 88.4946 184.1C88.0626 184.916 87.7186 185.956 87.4626 187.22L86.2866 192.716H83.6466ZM100.659 192.956C100.035 192.956 99.4748 192.796 98.9788 192.476C98.4828 192.156 98.0828 191.668 97.7788 191.012C97.4908 190.356 97.3468 189.532 97.3468 188.54C97.3468 187.612 97.4348 186.708 97.6108 185.828C97.8028 184.948 98.0748 184.132 98.4268 183.38C98.7788 182.612 99.1948 181.94 99.6748 181.364C100.171 180.788 100.731 180.34 101.355 180.02C101.979 179.7 102.643 179.54 103.347 179.54C103.891 179.54 104.355 179.636 104.739 179.828C105.123 180.02 105.451 180.284 105.723 180.62C105.995 180.94 106.219 181.292 106.395 181.676H106.491L107.211 179.78H109.155L106.395 192.716H104.427L104.691 190.532H104.619C104.299 190.98 103.939 191.388 103.539 191.756C103.139 192.124 102.699 192.42 102.219 192.644C101.755 192.852 101.235 192.956 100.659 192.956ZM101.619 190.868C102.131 190.868 102.627 190.66 103.107 190.244C103.603 189.828 104.043 189.276 104.427 188.588C104.827 187.884 105.123 187.108 105.315 186.26C105.427 185.828 105.499 185.42 105.531 185.036C105.563 184.652 105.579 184.3 105.579 183.98C105.579 183.292 105.411 182.732 105.075 182.3C104.739 181.852 104.275 181.628 103.683 181.628C103.251 181.628 102.843 181.756 102.459 182.012C102.091 182.268 101.747 182.612 101.427 183.044C101.123 183.476 100.859 183.988 100.635 184.58C100.411 185.156 100.235 185.78 100.107 186.452C99.9788 187.108 99.9148 187.788 99.9148 188.492C99.9148 189.292 100.059 189.892 100.347 190.292C100.651 190.676 101.075 190.868 101.619 190.868ZM113.285 198.476C112.485 198.476 111.773 198.396 111.149 198.236C110.525 198.092 109.973 197.9 109.493 197.66L109.517 195.38C109.821 195.556 110.173 195.716 110.573 195.86C110.973 196.02 111.397 196.148 111.845 196.244C112.309 196.34 112.757 196.388 113.189 196.388C114.085 196.388 114.813 196.164 115.373 195.716C115.949 195.268 116.349 194.532 116.573 193.508L116.765 192.74C116.813 192.5 116.869 192.236 116.933 191.948C117.013 191.644 117.085 191.364 117.149 191.108C117.229 190.852 117.285 190.66 117.317 190.532H117.221C116.917 190.964 116.573 191.364 116.189 191.732C115.821 192.1 115.405 192.396 114.941 192.62C114.493 192.844 113.997 192.956 113.453 192.956C112.813 192.956 112.245 192.796 111.749 192.476C111.253 192.14 110.861 191.644 110.573 190.988C110.301 190.332 110.165 189.516 110.165 188.54C110.165 187.628 110.253 186.74 110.429 185.876C110.621 184.996 110.885 184.18 111.221 183.428C111.557 182.66 111.965 181.988 112.445 181.412C112.941 180.82 113.501 180.364 114.125 180.044C114.749 179.708 115.429 179.54 116.165 179.54C116.693 179.54 117.149 179.636 117.533 179.828C117.933 180.02 118.269 180.276 118.541 180.596C118.829 180.916 119.061 181.276 119.237 181.676H119.309L120.053 179.78H121.997L119.093 193.34C118.821 194.588 118.421 195.588 117.893 196.34C117.365 197.092 116.709 197.636 115.925 197.972C115.157 198.308 114.277 198.476 113.285 198.476ZM114.485 190.868C114.821 190.868 115.149 190.78 115.469 190.604C115.789 190.428 116.093 190.18 116.381 189.86C116.669 189.524 116.941 189.14 117.197 188.708C117.453 188.26 117.669 187.78 117.845 187.268C118.021 186.756 118.157 186.228 118.253 185.684C118.365 185.124 118.421 184.572 118.421 184.028C118.421 183.308 118.269 182.732 117.965 182.3C117.661 181.852 117.165 181.628 116.477 181.628C116.045 181.628 115.637 181.764 115.253 182.036C114.869 182.292 114.525 182.644 114.221 183.092C113.917 183.54 113.653 184.06 113.429 184.652C113.205 185.228 113.037 185.844 112.925 186.5C112.813 187.156 112.757 187.82 112.757 188.492C112.757 189.292 112.901 189.892 113.189 190.292C113.493 190.676 113.925 190.868 114.485 190.868ZM127.731 192.956C126.787 192.956 125.971 192.764 125.283 192.38C124.595 191.996 124.067 191.444 123.699 190.724C123.347 190.004 123.171 189.132 123.171 188.108C123.171 187.068 123.315 186.044 123.603 185.036C123.891 184.012 124.315 183.092 124.875 182.276C125.435 181.444 126.115 180.78 126.915 180.284C127.731 179.788 128.651 179.54 129.675 179.54C130.907 179.54 131.835 179.82 132.459 180.38C133.083 180.94 133.395 181.7 133.395 182.66C133.395 183.316 133.251 183.924 132.963 184.484C132.675 185.044 132.243 185.532 131.667 185.948C131.091 186.348 130.347 186.668 129.435 186.908C128.539 187.132 127.467 187.244 126.219 187.244H125.763C125.747 187.388 125.731 187.532 125.715 187.676C125.715 187.804 125.715 187.932 125.715 188.06C125.715 188.956 125.923 189.66 126.339 190.172C126.755 190.684 127.387 190.94 128.235 190.94C128.843 190.94 129.403 190.852 129.915 190.676C130.443 190.5 131.035 190.252 131.691 189.932L131.667 191.996C131.059 192.284 130.451 192.516 129.843 192.692C129.251 192.868 128.547 192.956 127.731 192.956ZM126.363 185.348C127.259 185.348 128.043 185.26 128.715 185.084C129.403 184.908 129.939 184.636 130.323 184.268C130.723 183.884 130.923 183.404 130.923 182.828C130.923 182.444 130.803 182.132 130.563 181.892C130.339 181.652 129.979 181.532 129.483 181.532C129.035 181.532 128.587 181.684 128.139 181.988C127.691 182.292 127.283 182.732 126.915 183.308C126.563 183.868 126.291 184.548 126.099 185.348H126.363ZM134.149 192.716L136.909 179.78H138.901L138.637 182.18H138.757C139.093 181.7 139.445 181.268 139.813 180.884C140.181 180.484 140.589 180.164 141.037 179.924C141.485 179.668 141.989 179.54 142.549 179.54C142.757 179.54 142.973 179.556 143.197 179.588C143.421 179.604 143.613 179.636 143.773 179.684L143.197 182.036C143.021 181.988 142.837 181.948 142.645 181.916C142.453 181.884 142.253 181.868 142.045 181.868C141.533 181.868 141.053 182.004 140.605 182.276C140.173 182.548 139.781 182.916 139.429 183.38C139.077 183.844 138.773 184.372 138.517 184.964C138.261 185.556 138.061 186.18 137.917 186.836L136.669 192.716H134.149Z" fill="#555555"/>
<circle cx="83.7834" cy="59.972" r="50.7834" fill="#EF7C00"/>
<path d="M94.856 80.3961V50.3262H100.709V80.3961H94.856ZM97.8121 45.6865C96.7941 45.6865 95.9196 45.3472 95.1888 44.6685C94.471 43.9768 94.1121 43.1546 94.1121 42.2019C94.1121 41.2361 94.471 40.4139 95.1888 39.7352C95.9196 39.0435 96.7941 38.6976 97.8121 38.6976C98.8301 38.6976 99.698 39.0435 100.416 39.7352C101.147 40.4139 101.512 41.2361 101.512 42.2019C101.512 43.1546 101.147 43.9768 100.416 44.6685C99.698 45.3472 98.8301 45.6865 97.8121 45.6865Z" fill="white"/>
<path d="M64.9707 80.3809V40.2877H71.0199V75.1735H89.1871V80.3809H64.9707Z" fill="white"/>
<path d="M171.038 22.3413L170.078 24.0149C169.727 24.6353 168.978 24.8927 168.311 24.647C166.93 24.132 165.666 23.3946 164.554 22.47C164.016 22.0253 163.875 21.2411 164.226 20.6325L165.186 18.9589C164.378 18.0226 163.746 16.9341 163.325 15.752H161.394C160.692 15.752 160.083 15.2487 159.966 14.5465C159.732 13.142 159.72 11.6673 159.966 10.2043C160.083 9.50212 160.692 8.98714 161.394 8.98714H163.325C163.746 7.80505 164.378 6.71659 165.186 5.78028L164.226 4.10662C163.875 3.49802 164.004 2.71385 164.554 2.26911C165.666 1.3445 166.941 0.607153 168.311 0.0921819C168.978 -0.1536 169.727 0.103886 170.078 0.724192L171.038 2.39785C172.267 2.17548 173.519 2.17548 174.748 2.39785L175.708 0.724192C176.059 0.103886 176.808 -0.1536 177.475 0.0921819C178.856 0.607153 180.12 1.3445 181.232 2.26911C181.77 2.71385 181.911 3.49802 181.56 4.10662L180.6 5.78028C181.408 6.71659 182.04 7.80505 182.461 8.98714H184.392C185.094 8.98714 185.703 9.49041 185.82 10.1926C186.054 11.5971 186.066 13.0718 185.82 14.5348C185.703 15.237 185.094 15.752 184.392 15.752H182.461C182.04 16.9341 181.408 18.0226 180.6 18.9589L181.56 20.6325C181.911 21.2411 181.782 22.0253 181.232 22.47C180.12 23.3946 178.844 24.132 177.475 24.647C176.808 24.8927 176.059 24.6353 175.708 24.0149L174.748 22.3413C173.531 22.5637 172.267 22.5637 171.038 22.3413ZM169.809 15.4594C174.315 18.9238 179.453 13.7857 175.989 9.27974C171.483 5.80368 166.345 10.9534 169.809 15.4594ZM156.314 33.4717L160.259 35.4379C161.441 36.1168 161.956 37.5564 161.487 38.8438C160.446 41.6761 158.398 44.2744 156.502 46.5449C155.636 47.5866 154.137 47.8441 152.955 47.1653L149.549 45.199C147.677 46.8024 145.5 48.0782 143.124 48.9091V52.8416C143.124 54.1993 142.153 55.3697 140.818 55.6038C137.939 56.0953 134.92 56.1187 131.935 55.6038C130.589 55.3697 129.594 54.211 129.594 52.8416V48.9091C127.218 48.0665 125.042 46.8024 123.169 45.199L119.763 47.1535C118.593 47.8324 117.083 47.5749 116.217 46.5332C114.321 44.2627 112.319 41.6644 111.278 38.8438C110.81 37.5681 111.325 36.1285 112.507 35.4379L116.404 33.4717C115.948 31.0256 115.948 28.5092 116.404 26.0514L112.507 24.0735C111.325 23.3946 110.798 21.9551 111.278 20.6793C112.319 17.847 114.321 15.2487 116.217 12.9782C117.083 11.9365 118.581 11.679 119.763 12.3579L123.169 14.3241C125.042 12.7207 127.218 11.445 129.594 10.614V6.66977C129.594 5.32382 130.554 4.15343 131.888 3.91936C134.767 3.42779 137.799 3.40438 140.783 3.90765C142.129 4.14173 143.124 5.30042 143.124 6.66977V10.6023C145.5 11.445 147.677 12.709 149.549 14.3124L152.955 12.3462C154.126 11.6673 155.636 11.9248 156.502 12.9665C158.398 15.237 160.387 17.8353 161.429 20.6676C161.897 21.9434 161.441 23.3829 160.259 24.0735L156.314 26.0397C156.771 28.4975 156.771 31.0139 156.314 33.4717ZM142.551 35.9412C149.479 26.9292 139.192 16.6415 130.18 23.5702C123.251 32.5822 133.539 42.8699 142.551 35.9412ZM171.038 57.3242L170.078 58.9979C169.727 59.6182 168.978 59.8757 168.311 59.6299C166.93 59.1149 165.666 58.3776 164.554 57.453C164.016 57.0082 163.875 56.2241 164.226 55.6155L165.186 53.9418C164.378 53.0055 163.746 51.917 163.325 50.7349H161.394C160.692 50.7349 160.083 50.2317 159.966 49.5294C159.732 48.125 159.72 46.6503 159.966 45.1873C160.083 44.4851 160.692 43.9701 161.394 43.9701H163.325C163.746 42.788 164.378 41.6995 165.186 40.7632L164.226 39.0896C163.875 38.481 164.004 37.6968 164.554 37.2521C165.666 36.3274 166.941 35.5901 168.311 35.0751C168.978 34.8293 169.727 35.0868 170.078 35.7071L171.038 37.3808C172.267 37.1584 173.519 37.1584 174.748 37.3808L175.708 35.7071C176.059 35.0868 176.808 34.8293 177.475 35.0751C178.856 35.5901 180.12 36.3274 181.232 37.2521C181.77 37.6968 181.911 38.481 181.56 39.0896L180.6 40.7632C181.408 41.6995 182.04 42.788 182.461 43.9701H184.392C185.094 43.9701 185.703 44.4734 185.82 45.1756C186.054 46.5801 186.066 48.0547 185.82 49.5177C185.703 50.22 185.094 50.7349 184.392 50.7349H182.461C182.04 51.917 181.408 53.0055 180.6 53.9418L181.56 55.6155C181.911 56.2241 181.782 57.0082 181.232 57.453C180.12 58.3776 178.844 59.1149 177.475 59.6299C176.808 59.8757 176.059 59.6182 175.708 58.9979L174.748 57.3242C173.531 57.5466 172.267 57.5466 171.038 57.3242ZM169.809 50.4306C174.315 53.895 179.453 48.757 175.989 44.251C171.483 40.7866 166.345 45.9246 169.809 50.4306Z" fill="#007D40"/>
</svg>
