<svg width="671" height="95" viewBox="0 0 671 95" fill="none" xmlns="http://www.w3.org/2000/svg">
<path d="M88.136 74.952C84.2107 81.1813 78.8347 86.0027 72.008 89.416C65.1813 92.744 57.5867 94.408 49.224 94.408C38.984 94.408 30.1947 92.616 22.856 89.032C15.6027 85.448 10.056 80.2853 6.216 73.544C2.376 66.8027 0.456 58.7813 0.456 49.48C0.456 39.6667 2.54667 31.1333 6.728 23.88C10.9947 16.6267 16.9253 10.9947 24.52 6.98399C32.1147 2.888 40.9467 0.839996 51.016 0.839996C59.8907 0.839996 67.3573 2.41866 73.416 5.576C79.4747 8.648 84.424 13.4267 88.264 19.912L68.936 33.608C67.3147 30.4507 64.7973 27.976 61.384 26.184C57.9707 24.3067 54.216 23.368 50.12 23.368C42.6107 23.2827 36.7653 25.6293 32.584 30.408C28.488 35.1013 26.44 41.2453 26.44 48.84C26.44 56.0933 28.3173 61.768 32.072 65.864C35.912 69.8747 41.672 71.88 49.352 71.88C58.2267 71.88 64.8827 68.04 69.32 60.36L88.136 74.952ZM160.749 27.72V93H137.069L137.709 83.656C133.357 90.824 126.658 94.408 117.613 94.408C108.994 94.408 102.125 91.592 97.005 85.96C91.885 80.328 89.325 72.6053 89.325 62.792C89.325 55.4533 90.861 49.0533 93.933 43.592C97.0903 38.1307 101.229 33.9067 106.349 30.92C111.469 27.848 116.973 26.312 122.861 26.312C127.384 26.312 131.224 27.1227 134.381 28.744C137.624 30.28 140.141 32.456 141.933 35.272L143.853 27.72H160.749ZM126.573 46.792C122.648 46.792 119.533 48.2853 117.229 51.272C114.925 54.1733 113.773 57.7573 113.773 62.024C113.773 65.864 114.669 68.808 116.461 70.856C118.253 72.904 120.685 73.928 123.757 73.928C127.256 73.928 130.285 72.4773 132.845 69.576C135.49 66.6747 136.813 62.8773 136.813 58.184C136.813 54.6853 135.874 51.912 133.997 49.864C132.205 47.816 129.73 46.792 126.573 46.792ZM174.031 93V27.208H197.711L196.815 39.624C199.546 35.4427 202.874 32.2 206.799 29.896C210.81 27.5067 215.247 26.312 220.111 26.312C228.218 26.312 234.319 29.0427 238.415 34.504C242.511 39.88 244.516 47.8587 244.431 58.44L244.175 93H220.367L220.623 59.72C220.623 52.04 218.106 48.2 213.071 48.2C211.023 48.2 209.103 48.8827 207.311 50.248C205.519 51.528 203.94 53.832 202.575 57.16C201.21 60.4027 200.1 64.968 199.247 70.856C198.394 76.6587 197.882 84.04 197.711 93H174.031ZM302.733 27.208H326.285L302.861 93H268.813L248.333 27.208H274.189L287.117 72.904L302.733 27.208ZM395.499 27.72V93H371.819L372.459 83.656C368.107 90.824 361.408 94.408 352.363 94.408C343.744 94.408 336.875 91.592 331.755 85.96C326.635 80.328 324.075 72.6053 324.075 62.792C324.075 55.4533 325.611 49.0533 328.683 43.592C331.84 38.1307 335.979 33.9067 341.099 30.92C346.219 27.848 351.723 26.312 357.611 26.312C362.134 26.312 365.974 27.1227 369.131 28.744C372.374 30.28 374.891 32.456 376.683 35.272L378.603 27.72H395.499ZM361.323 46.792C357.398 46.792 354.283 48.2853 351.979 51.272C349.675 54.1733 348.523 57.7573 348.523 62.024C348.523 65.864 349.419 68.808 351.211 70.856C353.003 72.904 355.435 73.928 358.507 73.928C362.006 73.928 365.035 72.4773 367.595 69.576C370.24 66.6747 371.563 62.8773 371.563 58.184C371.563 54.6853 370.624 51.912 368.747 49.864C366.955 47.816 364.48 46.792 361.323 46.792ZM434.125 94.408C427.469 94.408 421.88 93.512 417.357 91.72C412.834 89.928 409.336 87.5387 406.861 84.552C404.472 81.5653 402.978 78.3227 402.381 74.824L421.965 69.96C422.392 71.5813 423.757 73.0747 426.061 74.44C428.365 75.72 431.352 76.36 435.021 76.36C437.41 76.36 439.202 76.104 440.397 75.592C441.592 74.9947 442.189 74.2693 442.189 73.416C442.189 72.904 441.933 72.4773 441.421 72.136C440.909 71.7947 439.885 71.4533 438.349 71.112C436.813 70.7707 434.424 70.3867 431.181 69.96C414.541 67.656 406.221 60.5733 406.221 48.712C406.221 44.36 407.458 40.52 409.933 37.192C412.493 33.7787 415.992 31.0907 420.429 29.128C424.952 27.1653 430.157 26.184 436.045 26.184C441.165 26.184 445.688 26.9947 449.613 28.616C453.624 30.2373 456.824 32.4133 459.213 35.144C461.688 37.7893 463.181 40.6907 463.693 43.848L444.493 49.352C443.981 48.072 442.914 46.92 441.293 45.896C439.757 44.7867 437.538 44.232 434.637 44.232C432.674 44.232 431.181 44.5307 430.157 45.128C429.133 45.64 428.621 46.28 428.621 47.048C428.621 47.7307 429.176 48.4133 430.285 49.096C431.394 49.6933 434.168 50.376 438.605 51.144C443.81 51.9973 448.333 53.2347 452.173 54.856C456.098 56.392 459.128 58.568 461.261 61.384C463.48 64.2 464.546 67.9547 464.461 72.648C464.461 77.1707 463.096 81.0533 460.365 84.296C457.72 87.5387 454.136 90.056 449.613 91.848C445.09 93.5547 439.928 94.408 434.125 94.408ZM505.9 93V76.36C514.092 71.0693 520.919 65.6933 526.38 60.232C531.927 54.7707 536.108 49.5227 538.924 44.488C541.74 39.4533 543.148 35.0587 543.148 31.304C543.148 25.416 540.247 22.472 534.444 22.472C531.116 22.472 528.257 23.5387 525.868 25.672C523.564 27.72 521.9 30.2373 520.876 33.224L503.084 23.368C504.62 18.9307 507.052 15.048 510.38 11.72C513.708 8.30666 517.719 5.66133 522.412 3.784C527.105 1.82133 532.183 0.839996 537.644 0.839996C543.959 0.839996 549.377 2.03466 553.9 4.424C558.423 6.81333 561.879 10.0987 564.268 14.28C566.657 18.376 567.809 23.0693 567.724 28.36C567.724 35.8693 565.42 43.4213 560.812 51.016C556.204 58.6107 548.609 66.0347 538.028 73.288H569.772V93H505.9ZM583.93 93V2.12H615.93C634.106 2.12 647.802 5.96 657.018 13.64C666.319 21.2347 670.97 32.4987 670.97 47.432C670.97 54.0027 669.775 60.0613 667.386 65.608C664.997 71.1547 661.626 75.976 657.274 80.072C652.922 84.168 647.759 87.368 641.786 89.672C635.898 91.8907 629.455 93 622.458 93H583.93ZM609.53 70.472H620.666C628.773 70.472 634.874 68.552 638.97 64.712C643.151 60.872 645.242 55.3253 645.242 48.072C645.242 39.9653 643.066 34.0347 638.714 30.28C634.362 26.5253 627.578 24.648 618.362 24.648H609.53V70.472Z" fill="#FF5660"/>
</svg>
