<svg width="67" height="30" viewBox="0 0 67 30" fill="none" xmlns="http://www.w3.org/2000/svg">
<path d="M42.52 0.86L33.52 30H27.4L21.92 11.94C21.8133 11.66 21.7133 11.3533 21.62 11.02C21.5267 10.6733 21.4333 10.3133 21.34 9.94C21.2467 10.3133 21.1533 10.6733 21.06 11.02C20.9667 11.3533 20.8667 11.66 20.76 11.94L15.2 30H9.08L0.08 0.86H5.76C6.34667 0.86 6.83333 0.993333 7.22 1.26C7.62 1.52667 7.88 1.88 8 2.32L12 17.52C12.12 18 12.24 18.5267 12.36 19.1C12.48 19.66 12.6 20.2467 12.72 20.86C12.96 19.6067 13.2533 18.4933 13.6 17.52L18.32 2.32C18.44 1.94667 18.6933 1.61333 19.08 1.32C19.48 1.01333 19.96 0.86 20.52 0.86H22.52C23.1067 0.86 23.58 0.999999 23.94 1.28C24.3 1.54667 24.5733 1.89333 24.76 2.32L29.44 17.52C29.7867 18.4533 30.08 19.5133 30.32 20.7C30.4267 20.1 30.5333 19.54 30.64 19.02C30.76 18.4867 30.88 17.9867 31 17.52L35 2.32C35.1067 1.93333 35.36 1.59333 35.76 1.3C36.16 1.00667 36.64 0.86 37.2 0.86H42.52ZM66.0972 3.3C66.0972 3.64667 66.0372 3.98667 65.9172 4.32C65.8105 4.65333 65.6572 4.96667 65.4572 5.26L51.7772 24.8H65.6572V30H43.1772V27.4C43.1772 27.0933 43.2305 26.7933 43.3372 26.5C43.4439 26.1933 43.5905 25.9133 43.7772 25.66L57.4972 6.06H44.2972V0.86H66.0972V3.3Z" fill="white"/>
</svg>
