<svg width="1930" height="1090" viewBox="0 0 1930 1090" fill="none" xmlns="http://www.w3.org/2000/svg">
<g clip-path="url(#clip0_3_154)" filter="url(#filter0_d_3_154)">
<rect width="1920" height="1080" transform="translate(5 5)" fill="url(#paint0_linear_3_154)"/>
<path d="M609.16 712.342V620.95H622.984V700.438H662.024V712.342H609.16ZM689.487 643.35V712.342H675.919V643.35H689.487ZM682.831 617.11C684.879 617.11 686.671 617.707 688.207 618.902C689.743 620.097 690.511 622.102 690.511 624.918C690.511 627.649 689.743 629.654 688.207 630.934C686.671 632.129 684.879 632.726 682.831 632.726C680.612 632.726 678.735 632.129 677.199 630.934C675.748 629.654 675.023 627.649 675.023 624.918C675.023 622.102 675.748 620.097 677.199 618.902C678.735 617.707 680.612 617.11 682.831 617.11ZM745.408 642.07C753.429 642.07 759.573 644.075 763.84 648.086C768.107 652.097 770.24 658.539 770.24 667.414V712.342H756.8V669.334C756.8 663.958 755.648 659.947 753.344 657.302C751.125 654.571 747.541 653.206 742.592 653.206C735.595 653.206 730.731 655.297 728 659.478C725.355 663.659 724.032 669.675 724.032 677.526V712.342H710.464V643.35H721.216L723.136 652.566H723.904C725.44 650.177 727.317 648.214 729.536 646.678C731.755 645.142 734.229 643.99 736.96 643.222C739.691 642.454 742.507 642.07 745.408 642.07ZM817.895 642.07C823.954 642.07 829.159 643.35 833.511 645.91C837.863 648.385 841.191 651.969 843.495 656.662C845.884 661.355 847.079 666.902 847.079 673.302V680.726H800.743C800.914 687.809 802.748 693.227 806.247 696.982C809.831 700.737 814.823 702.614 821.223 702.614C825.66 702.614 829.586 702.23 832.999 701.462C836.498 700.609 840.082 699.371 843.751 697.75V709.014C840.338 710.55 836.839 711.702 833.255 712.47C829.756 713.238 825.575 713.622 820.711 713.622C814.055 713.622 808.167 712.299 803.047 709.654C797.927 707.009 793.916 703.083 791.015 697.878C788.199 692.587 786.791 686.102 786.791 678.422C786.791 670.657 788.071 664.086 790.631 658.71C793.276 653.334 796.903 649.238 801.511 646.422C806.204 643.521 811.666 642.07 817.895 642.07ZM817.895 652.566C813.031 652.566 809.106 654.145 806.119 657.302C803.218 660.459 801.511 664.939 800.999 670.742H833.511C833.511 667.158 832.956 664.001 831.847 661.27C830.738 658.539 829.031 656.406 826.727 654.87C824.423 653.334 821.479 652.566 817.895 652.566ZM924.479 677.782C924.479 683.499 923.711 688.577 922.175 693.014C920.639 697.451 918.463 701.206 915.647 704.278C912.831 707.35 909.418 709.697 905.407 711.318C901.396 712.854 896.874 713.622 891.839 713.622C887.231 713.622 882.964 712.854 879.039 711.318C875.114 709.697 871.7 707.35 868.799 704.278C865.983 701.206 863.764 697.451 862.143 693.014C860.522 688.577 859.711 683.457 859.711 677.654C859.711 670.059 860.991 663.617 863.551 658.326C866.196 653.035 869.951 649.025 874.815 646.294C879.764 643.478 885.567 642.07 892.223 642.07C898.538 642.07 904.084 643.478 908.863 646.294C913.727 649.025 917.524 653.035 920.255 658.326C923.071 663.617 924.479 670.102 924.479 677.782ZM873.663 677.782C873.663 682.902 874.303 687.339 875.583 691.094C876.863 694.763 878.868 697.579 881.599 699.542C884.33 701.505 887.828 702.486 892.095 702.486C896.362 702.486 899.86 701.505 902.591 699.542C905.322 697.579 907.327 694.763 908.607 691.094C909.887 687.339 910.527 682.902 910.527 677.782C910.527 672.491 909.844 668.054 908.479 664.47C907.199 660.886 905.194 658.155 902.463 656.278C899.818 654.315 896.319 653.334 891.967 653.334C885.567 653.334 880.916 655.467 878.015 659.734C875.114 664.001 873.663 670.017 873.663 677.782ZM987.173 692.886C987.173 697.409 986.064 701.206 983.845 704.278C981.626 707.35 978.426 709.697 974.245 711.318C970.064 712.854 965.029 713.622 959.141 713.622C954.277 713.622 950.096 713.238 946.597 712.47C943.184 711.787 940.026 710.763 937.125 709.398V697.494C940.197 698.945 943.738 700.267 947.749 701.462C951.76 702.571 955.685 703.126 959.525 703.126C964.645 703.126 968.314 702.315 970.533 700.694C972.837 699.073 973.989 696.897 973.989 694.166C973.989 692.63 973.562 691.265 972.709 690.07C971.856 688.79 970.234 687.51 967.845 686.23C965.541 684.865 962.128 683.329 957.605 681.622C953.253 679.83 949.541 678.081 946.469 676.374C943.397 674.582 941.05 672.491 939.429 670.102C937.808 667.627 936.997 664.47 936.997 660.63C936.997 654.657 939.386 650.091 944.165 646.934C949.029 643.691 955.429 642.07 963.365 642.07C967.546 642.07 971.472 642.497 975.141 643.35C978.896 644.118 982.522 645.313 986.021 646.934L981.541 657.302C979.578 656.363 977.53 655.595 975.397 654.998C973.349 654.315 971.258 653.761 969.125 653.334C967.077 652.907 964.944 652.694 962.725 652.694C958.629 652.694 955.514 653.334 953.381 654.614C951.248 655.894 950.181 657.686 950.181 659.99C950.181 661.611 950.65 663.019 951.589 664.214C952.613 665.409 954.362 666.603 956.837 667.798C959.312 668.993 962.682 670.443 966.949 672.15C971.216 673.771 974.842 675.435 977.829 677.142C980.901 678.849 983.205 680.939 984.741 683.414C986.362 685.889 987.173 689.046 987.173 692.886ZM1089.06 642.07C1089.06 646.166 1088.25 649.75 1086.63 652.822C1085.09 655.809 1082.87 658.241 1079.97 660.118C1077.07 661.995 1073.74 663.361 1069.99 664.214V664.726C1077.33 665.579 1082.79 667.883 1086.37 671.638C1090.04 675.307 1091.88 680.171 1091.88 686.23C1091.88 691.521 1090.6 696.257 1088.04 700.438C1085.56 704.534 1081.68 707.777 1076.39 710.166C1071.18 712.47 1064.48 713.622 1056.29 713.622C1051.43 713.622 1046.9 713.238 1042.72 712.47C1038.54 711.702 1034.57 710.422 1030.82 708.63V696.342C1034.66 698.305 1038.76 699.798 1043.11 700.822C1047.54 701.846 1051.77 702.358 1055.78 702.358C1063.54 702.358 1069.13 700.907 1072.55 698.006C1075.96 695.019 1077.67 690.881 1077.67 685.59C1077.67 682.177 1076.77 679.403 1074.98 677.27C1073.19 675.051 1070.46 673.43 1066.79 672.406C1063.12 671.297 1058.55 670.742 1053.09 670.742H1044.77V659.606H1053.22C1058.42 659.606 1062.65 658.966 1065.89 657.686C1069.13 656.321 1071.52 654.443 1073.06 652.054C1074.6 649.665 1075.36 646.934 1075.36 643.862C1075.36 639.766 1074 636.609 1071.27 634.39C1068.62 632.086 1064.78 630.934 1059.75 630.934C1056.68 630.934 1053.82 631.275 1051.17 631.958C1048.61 632.641 1046.26 633.537 1044.13 634.646C1042 635.755 1039.91 636.993 1037.86 638.358L1031.2 629.014C1033.51 627.307 1036.07 625.729 1038.88 624.278C1041.78 622.827 1044.98 621.718 1048.48 620.95C1052.07 620.097 1055.95 619.67 1060.13 619.67C1069.6 619.67 1076.77 621.761 1081.64 625.942C1086.58 630.038 1089.06 635.414 1089.06 642.07ZM615.112 814.982C612.125 814.982 609.629 814.491 607.624 813.51C605.661 812.529 604.168 811.099 603.144 809.222C602.163 807.302 601.672 805.041 601.672 802.438C601.672 801.67 601.715 800.795 601.8 799.814C601.928 798.79 602.12 797.723 602.376 796.614L608.328 768.646H615.176L609.16 796.806C608.947 797.745 608.776 798.705 608.648 799.686C608.563 800.625 608.52 801.414 608.52 802.054C608.52 804.23 609.117 805.937 610.312 807.174C611.507 808.411 613.32 809.03 615.752 809.03C617.885 809.03 619.635 808.625 621 807.814C622.408 806.961 623.539 805.723 624.392 804.102C625.288 802.438 625.992 800.411 626.504 798.022L632.776 768.646H639.624L633.224 798.598C632.541 801.926 631.475 804.827 630.024 807.302C628.573 809.734 626.632 811.633 624.2 812.998C621.811 814.321 618.781 814.982 615.112 814.982ZM648.026 814.982C646.021 814.982 644.25 814.79 642.714 814.406C641.178 814.022 639.813 813.51 638.618 812.87L638.682 806.918C639.877 807.643 641.263 808.283 642.842 808.838C644.463 809.393 646.106 809.67 647.77 809.67C649.178 809.67 650.351 809.478 651.29 809.094C652.271 808.667 653.039 808.091 653.594 807.366C654.149 806.598 654.426 805.723 654.426 804.742C654.426 803.974 654.277 803.313 653.978 802.758C653.679 802.161 653.146 801.563 652.378 800.966C651.653 800.369 650.586 799.665 649.178 798.854C647.727 797.958 646.511 797.062 645.53 796.166C644.549 795.27 643.802 794.289 643.29 793.222C642.778 792.113 642.522 790.833 642.522 789.382C642.565 787.249 643.055 785.435 643.994 783.942C644.933 782.449 646.277 781.297 648.026 780.486C649.818 779.633 651.93 779.206 654.362 779.206C656.325 779.206 658.159 779.441 659.866 779.91C661.573 780.379 663.109 780.998 664.474 781.766L662.298 786.886C661.189 786.331 659.973 785.819 658.65 785.35C657.37 784.881 655.919 784.646 654.298 784.646C652.847 784.646 651.653 785.03 650.714 785.798C649.775 786.566 649.306 787.59 649.306 788.87C649.306 789.51 649.455 790.107 649.754 790.662C650.053 791.174 650.565 791.729 651.29 792.326C652.015 792.881 653.018 793.563 654.298 794.374C655.663 795.185 656.879 796.017 657.946 796.87C659.013 797.723 659.845 798.726 660.442 799.878C661.039 800.987 661.338 802.353 661.338 803.974C661.295 806.363 660.719 808.39 659.61 810.054C658.543 811.675 657.007 812.913 655.002 813.766C653.039 814.577 650.714 814.982 648.026 814.982ZM680.131 814.982C677.614 814.982 675.438 814.47 673.603 813.446C671.769 812.422 670.361 810.95 669.379 809.03C668.441 807.11 667.971 804.785 667.971 802.054C667.971 799.281 668.355 796.55 669.123 793.862C669.891 791.131 671.022 788.678 672.515 786.502C674.009 784.283 675.822 782.513 677.955 781.19C680.131 779.867 682.585 779.206 685.315 779.206C688.601 779.206 691.075 779.953 692.739 781.446C694.403 782.939 695.235 784.966 695.235 787.526C695.235 789.275 694.851 790.897 694.083 792.39C693.315 793.883 692.163 795.185 690.627 796.294C689.091 797.361 687.107 798.214 684.675 798.854C682.286 799.451 679.427 799.75 676.099 799.75H674.883C674.841 800.134 674.798 800.518 674.755 800.902C674.755 801.243 674.755 801.585 674.755 801.926C674.755 804.315 675.31 806.193 676.419 807.558C677.529 808.923 679.214 809.606 681.475 809.606C683.097 809.606 684.59 809.371 685.955 808.902C687.363 808.433 688.942 807.771 690.691 806.918L690.627 812.422C689.006 813.19 687.385 813.809 685.763 814.278C684.185 814.747 682.307 814.982 680.131 814.982ZM676.483 794.694C678.873 794.694 680.963 794.459 682.755 793.99C684.59 793.521 686.019 792.795 687.043 791.814C688.11 790.79 688.643 789.51 688.643 787.974C688.643 786.95 688.323 786.118 687.683 785.478C687.086 784.838 686.126 784.518 684.803 784.518C683.609 784.518 682.414 784.923 681.219 785.734C680.025 786.545 678.937 787.718 677.955 789.254C677.017 790.747 676.291 792.561 675.779 794.694H676.483ZM697.795 814.342L705.155 779.846H710.467L709.763 786.246H710.083C710.979 784.966 711.917 783.814 712.899 782.79C713.88 781.723 714.968 780.87 716.163 780.23C717.357 779.547 718.701 779.206 720.195 779.206C720.749 779.206 721.325 779.249 721.923 779.334C722.52 779.377 723.032 779.462 723.459 779.59L721.923 785.862C721.453 785.734 720.963 785.627 720.451 785.542C719.939 785.457 719.405 785.414 718.851 785.414C717.485 785.414 716.205 785.777 715.011 786.502C713.859 787.227 712.813 788.209 711.875 789.446C710.936 790.683 710.125 792.091 709.443 793.67C708.76 795.249 708.227 796.913 707.843 798.662L704.515 814.342H697.795ZM738.275 814.342L747.939 768.646H757.283L760.227 805.062H760.419L778.915 768.646H788.899L779.363 814.342H772.771L778.147 788.806C778.488 787.057 778.851 785.371 779.235 783.75C779.619 782.129 779.981 780.614 780.323 779.206C780.707 777.798 781.027 776.603 781.283 775.622H781.155L761.315 814.342H755.491L752.355 775.686H752.099C752.013 776.539 751.843 777.713 751.587 779.206C751.373 780.657 751.117 782.214 750.819 783.878C750.52 785.542 750.2 787.163 749.859 788.742L744.611 814.342H738.275ZM799.671 814.982C798.007 814.982 796.514 814.555 795.191 813.702C793.868 812.849 792.802 811.547 791.991 809.798C791.223 808.049 790.839 805.851 790.839 803.206C790.839 800.731 791.074 798.321 791.543 795.974C792.055 793.627 792.78 791.451 793.719 789.446C794.658 787.398 795.767 785.606 797.047 784.07C798.37 782.534 799.863 781.339 801.527 780.486C803.191 779.633 804.962 779.206 806.839 779.206C808.29 779.206 809.527 779.462 810.551 779.974C811.575 780.486 812.45 781.19 813.175 782.086C813.9 782.939 814.498 783.878 814.967 784.902H815.223L817.143 779.846H822.327L814.967 814.342H809.719L810.423 808.518H810.231C809.378 809.713 808.418 810.801 807.351 811.782C806.284 812.763 805.111 813.553 803.831 814.15C802.594 814.705 801.207 814.982 799.671 814.982ZM802.231 809.414C803.596 809.414 804.919 808.859 806.199 807.75C807.522 806.641 808.695 805.169 809.719 803.334C810.786 801.457 811.575 799.387 812.087 797.126C812.386 795.974 812.578 794.886 812.663 793.862C812.748 792.838 812.791 791.899 812.791 791.046C812.791 789.211 812.343 787.718 811.447 786.566C810.551 785.371 809.314 784.774 807.735 784.774C806.583 784.774 805.495 785.115 804.471 785.798C803.49 786.481 802.572 787.398 801.719 788.55C800.908 789.702 800.204 791.067 799.607 792.646C799.01 794.182 798.54 795.846 798.199 797.638C797.858 799.387 797.687 801.201 797.687 803.078C797.687 805.211 798.071 806.811 798.839 807.878C799.65 808.902 800.78 809.414 802.231 809.414ZM823.908 814.342L831.332 779.718H836.9L836.196 786.118H836.324C837.177 784.923 838.094 783.793 839.076 782.726C840.1 781.659 841.273 780.785 842.596 780.102C843.918 779.419 845.412 779.078 847.076 779.078C848.868 779.078 850.382 779.441 851.62 780.166C852.9 780.891 853.86 781.915 854.5 783.238C855.182 784.561 855.524 786.182 855.524 788.102C855.524 788.998 855.438 789.958 855.268 790.982C855.14 792.006 854.969 792.945 854.756 793.798L850.404 814.342H843.428L847.908 793.094C848.078 792.198 848.206 791.43 848.292 790.79C848.42 790.107 848.484 789.489 848.484 788.934C848.484 787.611 848.185 786.609 847.588 785.926C846.99 785.243 846.052 784.902 844.772 784.902C843.492 784.902 842.148 785.435 840.74 786.502C839.332 787.569 838.03 789.19 836.836 791.366C835.684 793.542 834.766 796.315 834.084 799.686L830.948 814.342H823.908ZM869.823 814.982C868.159 814.982 866.666 814.555 865.343 813.702C864.021 812.849 862.954 811.547 862.143 809.798C861.375 808.049 860.991 805.851 860.991 803.206C860.991 800.731 861.226 798.321 861.695 795.974C862.207 793.627 862.933 791.451 863.871 789.446C864.81 787.398 865.919 785.606 867.199 784.07C868.522 782.534 870.015 781.339 871.679 780.486C873.343 779.633 875.114 779.206 876.991 779.206C878.442 779.206 879.679 779.462 880.703 779.974C881.727 780.486 882.602 781.19 883.327 782.086C884.053 782.939 884.65 783.878 885.119 784.902H885.375L887.295 779.846H892.479L885.119 814.342H879.871L880.575 808.518H880.383C879.53 809.713 878.57 810.801 877.503 811.782C876.437 812.763 875.263 813.553 873.983 814.15C872.746 814.705 871.359 814.982 869.823 814.982ZM872.383 809.414C873.749 809.414 875.071 808.859 876.351 807.75C877.674 806.641 878.847 805.169 879.871 803.334C880.938 801.457 881.727 799.387 882.239 797.126C882.538 795.974 882.73 794.886 882.815 793.862C882.901 792.838 882.943 791.899 882.943 791.046C882.943 789.211 882.495 787.718 881.599 786.566C880.703 785.371 879.466 784.774 877.887 784.774C876.735 784.774 875.647 785.115 874.623 785.798C873.642 786.481 872.725 787.398 871.871 788.55C871.061 789.702 870.357 791.067 869.759 792.646C869.162 794.182 868.693 795.846 868.351 797.638C868.01 799.387 867.839 801.201 867.839 803.078C867.839 805.211 868.223 806.811 868.991 807.878C869.802 808.902 870.933 809.414 872.383 809.414ZM904.044 829.702C901.911 829.702 900.012 829.489 898.348 829.062C896.684 828.678 895.212 828.166 893.932 827.526L893.996 821.446C894.807 821.915 895.745 822.342 896.812 822.726C897.879 823.153 899.009 823.494 900.204 823.75C901.441 824.006 902.636 824.134 903.788 824.134C906.177 824.134 908.119 823.537 909.612 822.342C911.148 821.147 912.215 819.185 912.812 816.454L913.324 814.406C913.452 813.766 913.601 813.062 913.772 812.294C913.985 811.483 914.177 810.737 914.348 810.054C914.561 809.371 914.711 808.859 914.796 808.518H914.54C913.729 809.67 912.812 810.737 911.788 811.718C910.807 812.699 909.697 813.489 908.46 814.086C907.265 814.683 905.943 814.982 904.492 814.982C902.785 814.982 901.271 814.555 899.948 813.702C898.625 812.806 897.58 811.483 896.812 809.734C896.087 807.985 895.724 805.809 895.724 803.206C895.724 800.774 895.959 798.406 896.428 796.102C896.94 793.755 897.644 791.579 898.54 789.574C899.436 787.526 900.524 785.734 901.804 784.198C903.127 782.619 904.62 781.403 906.284 780.55C907.948 779.654 909.761 779.206 911.724 779.206C913.132 779.206 914.348 779.462 915.372 779.974C916.439 780.486 917.335 781.169 918.06 782.022C918.828 782.875 919.447 783.835 919.916 784.902H920.108L922.092 779.846H927.276L919.532 816.006C918.807 819.334 917.74 822.001 916.332 824.006C914.924 826.011 913.175 827.462 911.084 828.358C909.036 829.254 906.689 829.702 904.044 829.702ZM907.244 809.414C908.14 809.414 909.015 809.179 909.868 808.71C910.721 808.241 911.532 807.579 912.3 806.726C913.068 805.83 913.793 804.806 914.476 803.654C915.159 802.459 915.735 801.179 916.204 799.814C916.673 798.449 917.036 797.041 917.292 795.59C917.591 794.097 917.74 792.625 917.74 791.174C917.74 789.254 917.335 787.718 916.524 786.566C915.713 785.371 914.391 784.774 912.556 784.774C911.404 784.774 910.316 785.137 909.292 785.862C908.268 786.545 907.351 787.483 906.54 788.678C905.729 789.873 905.025 791.259 904.428 792.838C903.831 794.374 903.383 796.017 903.084 797.766C902.785 799.515 902.636 801.286 902.636 803.078C902.636 805.211 903.02 806.811 903.788 807.878C904.599 808.902 905.751 809.414 907.244 809.414ZM943.117 814.982C940.599 814.982 938.423 814.47 936.589 813.446C934.754 812.422 933.346 810.95 932.365 809.03C931.426 807.11 930.957 804.785 930.957 802.054C930.957 799.281 931.341 796.55 932.109 793.862C932.877 791.131 934.007 788.678 935.501 786.502C936.994 784.283 938.807 782.513 940.941 781.19C943.117 779.867 945.57 779.206 948.301 779.206C951.586 779.206 954.061 779.953 955.725 781.446C957.389 782.939 958.221 784.966 958.221 787.526C958.221 789.275 957.837 790.897 957.069 792.39C956.301 793.883 955.149 795.185 953.613 796.294C952.077 797.361 950.093 798.214 947.661 798.854C945.271 799.451 942.413 799.75 939.085 799.75H937.869C937.826 800.134 937.783 800.518 937.741 800.902C937.741 801.243 937.741 801.585 937.741 801.926C937.741 804.315 938.295 806.193 939.405 807.558C940.514 808.923 942.199 809.606 944.461 809.606C946.082 809.606 947.575 809.371 948.941 808.902C950.349 808.433 951.927 807.771 953.677 806.918L953.613 812.422C951.991 813.19 950.37 813.809 948.749 814.278C947.17 814.747 945.293 814.982 943.117 814.982ZM939.469 794.694C941.858 794.694 943.949 794.459 945.741 793.99C947.575 793.521 949.005 792.795 950.029 791.814C951.095 790.79 951.629 789.51 951.629 787.974C951.629 786.95 951.309 786.118 950.669 785.478C950.071 784.838 949.111 784.518 947.789 784.518C946.594 784.518 945.399 784.923 944.205 785.734C943.01 786.545 941.922 787.718 940.941 789.254C940.002 790.747 939.277 792.561 938.765 794.694H939.469ZM960.779 814.342L968.139 779.846H973.451L972.747 786.246H973.067C973.963 784.966 974.902 783.814 975.883 782.79C976.865 781.723 977.953 780.87 979.147 780.23C980.342 779.547 981.686 779.206 983.179 779.206C983.734 779.206 984.31 779.249 984.907 779.334C985.505 779.377 986.017 779.462 986.443 779.59L984.907 785.862C984.438 785.734 983.947 785.627 983.435 785.542C982.923 785.457 982.39 785.414 981.835 785.414C980.47 785.414 979.19 785.777 977.995 786.502C976.843 787.227 975.798 788.209 974.859 789.446C973.921 790.683 973.11 792.091 972.427 793.67C971.745 795.249 971.211 796.913 970.827 798.662L967.499 814.342H960.779Z" fill="#555555"/>
<ellipse cx="928.531" cy="385.192" rx="200.95" ry="200.95" fill="#EF7C00"/>
<path d="M972.345 466.01V347.024H995.507V466.01H972.345ZM984.042 328.665C980.014 328.665 976.554 327.322 973.662 324.637C970.821 321.899 969.401 318.646 969.401 314.876C969.401 311.054 970.821 307.801 973.662 305.115C976.554 302.378 980.014 301.01 984.042 301.01C988.07 301.01 991.504 302.378 994.345 305.115C997.237 307.801 998.683 311.054 998.683 314.876C998.683 318.646 997.237 321.899 994.345 324.637C991.504 327.322 988.07 328.665 984.042 328.665Z" fill="white"/>
<path d="M854.089 465.95V307.302H878.026V445.344H949.913V465.95H854.089Z" fill="white"/>
<path d="M1273.8 236.288L1270 242.91C1268.61 245.365 1265.64 246.384 1263 245.411C1257.54 243.374 1252.54 240.456 1248.14 236.797C1246.01 235.037 1245.45 231.934 1246.84 229.526L1250.64 222.904C1247.44 219.199 1244.94 214.892 1243.28 210.214H1235.63C1232.86 210.214 1230.45 208.223 1229.98 205.444C1229.06 199.886 1229.01 194.051 1229.98 188.262C1230.45 185.483 1232.86 183.446 1235.63 183.446H1243.28C1244.94 178.768 1247.44 174.461 1250.64 170.756L1246.84 164.133C1245.45 161.725 1245.96 158.622 1248.14 156.862C1252.54 153.204 1257.59 150.286 1263 148.248C1265.64 147.276 1268.61 148.295 1270 150.749L1273.8 157.372C1278.66 156.492 1283.61 156.492 1288.48 157.372L1292.27 150.749C1293.66 148.295 1296.63 147.276 1299.27 148.248C1304.73 150.286 1309.73 153.204 1314.13 156.862C1316.26 158.622 1316.82 161.725 1315.43 164.133L1311.63 170.756C1314.83 174.461 1317.33 178.768 1319 183.446H1326.64C1329.42 183.446 1331.82 185.437 1332.29 188.216C1333.21 193.773 1333.26 199.608 1332.29 205.398C1331.82 208.176 1329.42 210.214 1326.64 210.214H1319C1317.33 214.892 1314.83 219.199 1311.63 222.904L1315.43 229.526C1316.82 231.934 1316.31 235.037 1314.13 236.797C1309.73 240.456 1304.69 243.374 1299.27 245.411C1296.63 246.384 1293.66 245.365 1292.27 242.91L1288.48 236.288C1283.66 237.168 1278.66 237.168 1273.8 236.288ZM1268.93 209.056C1286.76 222.765 1307.09 202.434 1293.39 184.603C1275.56 170.849 1255.22 191.226 1268.93 209.056ZM1215.53 280.331L1231.14 288.111C1235.82 290.797 1237.86 296.494 1236 301.588C1231.88 312.796 1223.78 323.077 1216.28 332.061C1212.85 336.183 1206.92 337.202 1202.24 334.516L1188.77 326.736C1181.36 333.08 1172.74 338.128 1163.34 341.417V356.977C1163.34 362.35 1159.5 366.981 1154.22 367.907C1142.82 369.852 1130.88 369.945 1119.07 367.907C1113.74 366.981 1109.8 362.396 1109.8 356.977V341.417C1100.4 338.082 1091.79 333.08 1084.38 326.736L1070.9 334.47C1066.27 337.156 1060.3 336.137 1056.87 332.015C1049.37 323.031 1041.45 312.749 1037.33 301.588C1035.47 296.54 1037.51 290.844 1042.19 288.111L1057.61 280.331C1055.8 270.651 1055.8 260.694 1057.61 250.969L1042.19 243.142C1037.51 240.456 1035.43 234.759 1037.33 229.711C1041.45 218.504 1049.37 208.223 1056.87 199.238C1060.3 195.116 1066.22 194.097 1070.9 196.783L1084.38 204.564C1091.79 198.219 1100.4 193.171 1109.8 189.883V174.276C1109.8 168.95 1113.6 164.319 1118.88 163.392C1130.27 161.447 1142.27 161.355 1154.08 163.346C1159.4 164.272 1163.34 168.857 1163.34 174.276V189.837C1172.74 193.171 1181.36 198.173 1188.77 204.518L1202.24 196.737C1206.87 194.051 1212.85 195.07 1216.28 199.192C1223.78 208.176 1231.65 218.458 1235.77 229.665C1237.63 234.713 1235.82 240.41 1231.14 243.142L1215.53 250.922C1217.34 260.648 1217.34 270.605 1215.53 280.331ZM1161.07 290.103C1188.49 254.442 1147.78 213.734 1112.12 241.151C1084.7 276.811 1125.41 317.519 1161.07 290.103ZM1273.8 374.715L1270 381.338C1268.61 383.792 1265.64 384.811 1263 383.839C1257.54 381.801 1252.54 378.883 1248.14 375.225C1246.01 373.465 1245.45 370.362 1246.84 367.953L1250.64 361.331C1247.44 357.626 1244.94 353.319 1243.28 348.641H1235.63C1232.86 348.641 1230.45 346.65 1229.98 343.871C1229.06 338.314 1229.01 332.478 1229.98 326.689C1230.45 323.911 1232.86 321.873 1235.63 321.873H1243.28C1244.94 317.195 1247.44 312.888 1250.64 309.183L1246.84 302.561C1245.45 300.152 1245.96 297.049 1248.14 295.29C1252.54 291.631 1257.59 288.713 1263 286.675C1265.64 285.703 1268.61 286.722 1270 289.176L1273.8 295.799C1278.66 294.919 1283.61 294.919 1288.48 295.799L1292.27 289.176C1293.66 286.722 1296.63 285.703 1299.27 286.675C1304.73 288.713 1309.73 291.631 1314.13 295.29C1316.26 297.049 1316.82 300.152 1315.43 302.561L1311.63 309.183C1314.83 312.888 1317.33 317.195 1319 321.873H1326.64C1329.42 321.873 1331.82 323.864 1332.29 326.643C1333.21 332.2 1333.26 338.036 1332.29 343.825C1331.82 346.604 1329.42 348.641 1326.64 348.641H1319C1317.33 353.319 1314.83 357.626 1311.63 361.331L1315.43 367.953C1316.82 370.362 1316.31 373.465 1314.13 375.225C1309.73 378.883 1304.69 381.801 1299.27 383.839C1296.63 384.811 1293.66 383.792 1292.27 381.338L1288.48 374.715C1283.66 375.595 1278.66 375.595 1273.8 374.715ZM1268.93 347.437C1286.76 361.146 1307.09 340.815 1293.39 322.984C1275.56 309.276 1255.22 329.607 1268.93 347.437Z" fill="#007D40"/>
<rect x="0.725481" y="0.0420352" width="139.646" height="97.6516" transform="matrix(0.765217 -0.643772 0.685744 0.727843 1846.21 1100.33)" fill="white" stroke="#008143"/>
<path d="M1906.68 1059.53L1916.16 1064.85C1916.5 1065.05 1916.79 1065.31 1917.02 1065.61C1917.25 1065.92 1917.41 1066.27 1917.51 1066.64C1917.6 1067.01 1917.62 1067.39 1917.56 1067.77C1917.5 1068.15 1917.36 1068.51 1917.16 1068.83C1916.91 1069.23 1916.57 1069.56 1916.16 1069.8L1903.19 1077.11V1073.84L1914.7 1067.31L1908.49 1063.82V1068.77L1905.59 1070.39V1060.11C1905.58 1059.99 1905.62 1059.87 1905.68 1059.76C1905.75 1059.65 1905.85 1059.57 1905.97 1059.52C1906.07 1059.45 1906.2 1059.41 1906.33 1059.41C1906.46 1059.41 1906.58 1059.45 1906.68 1059.53Z" fill="#008143"/>
<rect x="5.80183" y="0.336178" width="881.418" height="615.905" transform="matrix(0.764982 -0.644052 0.685475 0.728096 1427.13 1182.79)" fill="url(#paint1_linear_3_154)" stroke="#008143" stroke-width="8"/>
<path d="M1809.21 923.84L1869.13 957.509C1871.24 958.76 1873.08 960.405 1874.53 962.348C1875.99 964.292 1877.04 966.497 1877.62 968.838C1878.21 971.178 1878.31 973.608 1877.94 975.988C1877.56 978.368 1876.7 980.653 1875.42 982.711C1873.86 985.22 1871.7 987.325 1869.13 988.849L1787.1 1035.06V1014.39L1859.86 973.061L1820.62 951.001V982.345L1802.31 992.581V927.556C1802.26 926.769 1802.45 925.983 1802.88 925.313C1803.31 924.642 1803.94 924.121 1804.69 923.825C1805.35 923.358 1806.14 923.108 1806.95 923.111C1807.77 923.114 1808.56 923.369 1809.21 923.84Z" fill="#008143"/>
</g>
<defs>
<filter id="filter0_d_3_154" x="0" y="0" width="1930" height="1090" filterUnits="userSpaceOnUse" color-interpolation-filters="sRGB">
<feFlood flood-opacity="0" result="BackgroundImageFix"/>
<feColorMatrix in="SourceAlpha" type="matrix" values="0 0 0 0 0 0 0 0 0 0 0 0 0 0 0 0 0 0 127 0" result="hardAlpha"/>
<feOffset/>
<feGaussianBlur stdDeviation="2.5"/>
<feColorMatrix type="matrix" values="0 0 0 0 0 0 0 0 0 0 0 0 0 0 0 0 0 0 0.2 0"/>
<feBlend mode="normal" in2="BackgroundImageFix" result="effect1_dropShadow_3_154"/>
<feBlend mode="normal" in="SourceGraphic" in2="effect1_dropShadow_3_154" result="shape"/>
</filter>
<linearGradient id="paint0_linear_3_154" x1="960" y1="0" x2="960" y2="1080" gradientUnits="userSpaceOnUse">
<stop offset="0.374545" stop-color="#FFD9B0"/>
<stop offset="1" stop-color="#FFB360" stop-opacity="0.92"/>
</linearGradient>
<linearGradient id="paint1_linear_3_154" x1="444.709" y1="0" x2="444.709" y2="623.905" gradientUnits="userSpaceOnUse">
<stop offset="0.015" stop-color="#FFD09D"/>
<stop offset="0.21" stop-color="#FFB360"/>
</linearGradient>
<clipPath id="clip0_3_154">
<rect width="1920" height="1080" fill="white" transform="translate(5 5)"/>
</clipPath>
</defs>
</svg>
